<?xml version="1.0" standalone="no"?>
<!DOCTYPE svg PUBLIC "-//W3C//DTD SVG 1.1//EN" "http://www.w3.org/Graphics/SVG/1.1/DTD/svg11.dtd" >
<svg xmlns="http://www.w3.org/2000/svg">
<metadata>Generated by IcoMoon</metadata>
<defs>
<font id="innod" horiz-adv-x="1024">
<font-face units-per-em="1024" ascent="960" descent="-64" />
<missing-glyph horiz-adv-x="1024" />
<glyph unicode="&#x20;" horiz-adv-x="512" d="" />
<glyph unicode="&#xe900;" glyph-name="add-docs" d="M791.45 794.624c0 21.709-8.397 41.984-23.757 57.344l-76.493 76.493c-15.155 15.155-36.557 23.757-57.958 23.757h-4.71v-162.304h162.918v4.71zM755.917 302.694c-99.123 0-179.507-80.384-179.507-179.507s80.384-179.507 179.507-179.507 179.507 80.384 179.507 179.507c0 99.123-80.384 179.507-179.507 179.507zM834.458 92.365h-47.718v-47.718c0-16.998-13.824-30.822-30.822-30.822s-30.822 13.824-30.822 30.822v47.718h-47.718c-16.998 0-30.822 13.824-30.822 30.822s13.824 30.822 30.822 30.822h47.718v47.718c0 16.998 13.824 30.822 30.822 30.822s30.822-13.824 30.822-30.822v-47.718h47.718c16.998 0 30.822-13.824 30.822-30.822s-13.824-30.822-30.822-30.822zM748.237 339.763c15.053 0 29.696-1.536 43.93-4.403v400.486h-190.259c-14.95 0-26.214 12.083-26.214 27.034v189.44h-405.914c-44.749 0-81.203-36.454-81.203-81.203v-761.446c0-44.749 36.454-81.203 81.203-81.203h383.693c-13.926 28.57-21.811 60.723-21.811 94.72 0 119.603 96.973 216.576 216.576 216.576zM223.949 681.677h430.694c14.95 0 27.034-12.083 27.034-27.034s-12.083-27.034-27.034-27.034h-430.694c-14.95 0-27.034 12.083-27.034 27.034-0.102 14.95 12.083 27.034 27.034 27.034zM223.949 573.542h430.694c14.95 0 27.034-12.083 27.034-27.034s-12.083-27.034-27.034-27.034h-430.694c-14.95 0-27.034 12.083-27.034 27.034-0.102 14.848 12.083 27.034 27.034 27.034zM223.949 465.203h430.694c14.95 0 27.034-12.083 27.034-27.034s-12.083-27.034-27.034-27.034h-430.694c-14.95 0-27.034 12.083-27.034 27.034-0.102 14.95 12.083 27.034 27.034 27.034zM196.813 329.83c0 14.95 12.083 27.034 27.034 27.034h269.824c14.95 0 27.034-12.083 27.034-27.034s-12.083-27.034-27.034-27.034h-269.722c-14.95 0-27.136 12.083-27.136 27.034zM497.766 140.39h-58.266c-14.95 0-27.034 12.083-27.034 27.034s12.083 27.034 27.034 27.034h58.266c14.95 0 27.034-12.083 27.034-27.034 0.102-14.95-12.083-27.034-27.034-27.034z" />
<glyph unicode="&#xe901;" glyph-name="add-user" d="M452.004 440.975c141.629 0.010 192.594 141.814 205.926 258.304 16.435 143.503-51.425 251.505-205.926 251.505-154.481 0-222.382-107.991-205.937-251.505 13.353-116.48 64.307-258.314 205.937-258.304zM761.692 381.952c4.557 0 9.083-0.133 13.578-0.389-6.738 9.615-14.541 18.094-23.675 24.914-27.218 20.316-62.464 26.972-93.624 39.219-15.165 5.96-28.754 11.878-41.503 18.616-43.028-47.196-99.154-71.875-164.495-71.885-65.331 0-121.436 24.689-164.465 71.885-12.749-6.738-26.337-12.657-41.503-18.616-31.16-12.247-66.406-18.913-93.624-39.219-47.063-35.133-59.228-114.156-68.782-168.059-7.885-44.503-13.189-89.907-14.735-135.107-1.198-35.011 16.087-39.916 45.373-50.493 36.669-13.23 74.547-23.050 112.66-31.099 73.626-15.544 149.514-27.494 225.075-28.027 36.618 0.266 73.298 3.215 109.773 7.946-27.003 39.127-42.844 86.518-42.844 137.554 0.031 133.857 108.933 242.76 242.79 242.76zM761.692 333.394c-107.254 0-194.212-86.958-194.212-194.212s86.958-194.212 194.212-194.212 194.212 86.958 194.212 194.212c0 107.254-86.948 194.212-194.212 194.212zM846.664 105.861h-51.651v-51.64c0-18.401-14.92-33.321-33.321-33.321s-33.321 14.92-33.321 33.321v51.64h-51.64c-18.401 0-33.321 14.92-33.321 33.321s14.92 33.321 33.321 33.321h51.64v51.651c0 18.401 14.92 33.321 33.321 33.321s33.321-14.92 33.321-33.321v-51.64h51.651c18.401 0 33.321-14.92 33.321-33.321 0-18.412-14.92-33.331-33.321-33.331z" />
<glyph unicode="&#xe902;" glyph-name="admin-institucion" d="M45.548 429.251c-11.059-0.205-19.937-9.196-19.937-20.255v-374.671c0-5.591 4.536-10.127 10.127-10.127h96.102c9.073 0 17.009 5.99 19.487 14.705l89.651 315.924c5.796 20.419-5.14 41.892-25.119 49.142-36.7 13.373-93.010 26.573-170.312 25.283zM916.91 206.51c-81.019 0-243.077-102.543-324.106-102.543s-172.186 62.034-172.186 62.034 109.148-20.255 172.186-20.255 81.019 21.514 81.019 50.647c0 70.892-120.402 81.91-181.34 91.187-59.802 33.3-90.87 59.638-189.921 68.024-0.573-5.796-1.464-11.551-3.082-17.265l-81.377-286.833c92.16-41.933 250.9-108.339 334.193-108.339 121.539 0 445.655 162.058 445.655 202.568s-40.52 60.774-81.039 60.774zM939.223 436.050c0.911 2.734 1.434 5.663 1.434 8.714v319.939c0 15.165-12.298 27.464-27.464 27.464h-152.873v-340.531c0-5.468-0.983-10.691-2.734-15.565h-17.93c0.911 2.734 1.434 5.663 1.434 8.714v439.388c0 15.165-12.298 27.464-27.464 27.464h-239.852c-15.165 0-27.464-12.288-27.464-27.464v-439.398c0-3.052 0.522-5.98 1.434-8.714h-17.92c-1.741 4.874-2.734 10.107-2.734 15.565v340.531h-149.207c-15.165 0-27.464-12.288-27.464-27.464v-319.928c0-3.052 0.522-5.98 1.423-8.714h-47.206l77.455-56.76c40.264 0 700.662 0 700.662 0v56.76h-43.53zM332.8 548.209h-39.363v39.363h39.363v-39.363zM332.8 617.318h-39.363v39.363h39.363v-39.363zM332.8 684.145h-39.363v39.363h39.363v-39.363zM394.148 548.209h-39.363v39.363h39.363v-39.363zM394.148 617.318h-39.363v39.363h39.363v-39.363zM394.148 684.145h-39.363v39.363h39.363v-39.363zM654.807 437.893h-115.569v144.189h115.579l-0.010-144.189zM593.705 705.659c-53.463 0-96.799 43.346-96.799 96.799 0 53.473 43.346 96.809 96.799 96.809 53.473 0 96.809-43.346 96.809-96.809s-43.346-96.799-96.809-96.799zM843.612 548.209h-39.352v39.363h39.352v-39.363zM843.612 617.318h-39.352v39.363h39.352v-39.363zM843.612 684.145h-39.352v39.363h39.352v-39.363zM904.95 548.209h-39.363v39.363h39.352v-39.363h0.010zM904.95 617.318h-39.363v39.363h39.352v-39.363h0.010zM904.95 684.145h-39.363v39.363h39.352v-39.363h0.010zM617.728 826.491h37.079v-48.056h-37.079v-37.089h-48.046v37.1h-37.079v48.056h37.079v37.069h48.046v-37.079z" />
<glyph unicode="&#xe903;" glyph-name="alarm" d="M303.718 878.592l-64.819 77.107-231.731-194.355 64.819-77.21zM1015.808 761.037l-231.731 194.458-64.819-77.21 231.731-194.355zM511.283 847.77c-250.88 0-453.632-203.264-453.632-453.837s202.752-453.837 453.632-453.837 454.144 203.264 454.144 453.837-203.264 453.837-454.144 453.837zM511.488 40.858c-194.867 0-352.973 158.106-352.973 352.973s158.106 352.973 352.973 352.973 352.973-158.106 352.973-352.973-157.798-352.973-352.973-352.973zM536.678 646.042h-75.571v-302.592l239.309-143.974 37.99 62.362-201.728 119.501z" />
<glyph unicode="&#xe904;" glyph-name="aproval" d="M354.202 227.84c-10.854 0-19.661-8.806-19.661-19.661s8.806-19.661 19.661-19.661 19.661 8.806 19.661 19.661c0 10.854-8.806 19.661-19.661 19.661zM1014.784 463.77c0 43.315-35.328 78.643-78.643 78.643-46.797 0-190.259 0-236.442 0 11.776 39.117 28.467 91.443 37.683 121.446 25.702 66.048 1.638 126.976-29.594 162.099-24.986 28.058-54.784 40.96-79.77 34.304-11.469-2.97-31.744-13.107-38.912-46.592-15.462-72.090-29.594-150.118-73.83-199.066-44.442-49.254-120.627-72.192-239.718-72.192h-247.706c-10.854 0-19.661-8.806-19.661-19.661v-471.859c0-10.854 8.806-19.661 19.661-19.661h247.706c10.854 0 19.661 8.806 19.661 19.661v50.586c124.723-44.544 227.84-70.246 373.555-70.246h149.402c43.418 0 78.643 35.226 78.643 78.643 0 14.336-3.891 27.75-10.547 39.322h10.547c43.418 0 78.643 35.226 78.643 78.643 0 16.179-4.915 31.232-13.312 43.725 30.413 10.65 52.634 39.629 52.634 74.24 0 23.45-10.342 44.544-26.726 58.982 17.306 15.258 26.726 36.454 26.726 58.982zM47.514 503.091h128l-36.045-432.538h-91.955v432.538zM255.898 70.554h-76.902l36.045 432.538h40.858v-432.538zM295.219 143.36v359.936c119.91 2.662 199.475 29.798 249.242 84.89 51.2 56.73 65.741 136.294 83.149 217.19 1.434 6.758 4.403 15.155 10.547 16.794 8.192 2.15 24.678-4.813 40.346-22.426 23.552-26.522 41.677-72.499 22.118-122.266-0.205-0.512-0.307-0.922-0.512-1.434-25.19-81.818-50.893-159.642-50.893-173.056 0-54.579-27.648-104.55-74.035-133.53-9.216-5.734-11.981-17.92-6.246-27.136s17.92-11.981 27.136-6.246c57.651 36.045 92.16 97.997 92.57 165.786 0.102 0.205 0.102 0.614 0.205 1.024h49.459c-6.861-11.776-10.547-25.293-10.547-39.322 0-23.45 10.342-44.544 26.726-58.982-17.306-15.258-26.726-36.557-26.726-58.982 0-16.179 4.915-31.232 13.312-43.725-30.413-10.65-52.634-39.629-52.634-74.24 0-14.336 3.891-27.75 10.547-39.322h-10.547c-20.992 0-40.755-8.192-55.603-23.040s-23.040-34.611-23.040-55.603c0-13.722 3.584-26.829 9.933-38.195-120.115 5.632-212.48 31.13-324.506 71.885v0zM857.498 109.875c0-21.709-17.613-39.322-39.322-39.322h-129.741c-21.504 0-39.322 17.306-39.322 39.322 0 21.709 17.613 39.322 39.322 39.322h129.741c21.709 0 39.322-17.613 39.322-39.322zM896.819 188.518c-21.094 0-99.533 0-129.741 0-21.709 0-39.322 17.613-39.322 39.322s17.613 39.322 39.322 39.322h129.741c21.709 0 39.322-17.613 39.322-39.322s-17.613-39.322-39.322-39.322zM975.462 345.805c0-21.709-17.613-39.322-39.322-39.322-33.382 0-99.123 0-129.741 0-21.709 0-39.322 17.613-39.322 39.322s17.613 39.322 39.322 39.322h129.741c21.709 0 39.322-17.613 39.322-39.322zM806.4 424.448c-21.709 0-39.322 17.613-39.322 39.322s17.613 39.322 39.322 39.322h129.741c21.709 0 39.322-17.613 39.322-39.322s-17.613-39.322-39.322-39.322h-129.741zM354.202 463.77c-10.854 0-19.661-8.806-19.661-19.661v-157.286c0-10.854 8.806-19.661 19.661-19.661s19.661 8.806 19.661 19.661v157.286c0 10.854-8.806 19.661-19.661 19.661z" />
<glyph unicode="&#xe905;" glyph-name="arrow-1-left" d="M512.236 818.084l-370.452-370.207 370.33-370.207 43.622 43.5-295.854 295.854h745.718v61.696h-745.718l295.977 295.977-43.622 43.387zM79.841 75.018v745.718h-61.706v-745.718h61.706z" />
<glyph unicode="&#xe906;" glyph-name="arrow-1-right" d="M511.498 77.67l370.452 370.207-370.33 370.207-43.622-43.5 295.854-295.854h-745.718v-61.696h745.718l-295.977-295.987 43.622-43.377zM943.903 820.736v-745.718h61.696v745.718h-61.696z" />
<glyph unicode="&#xe907;" glyph-name="arrow-2-bottom" d="M531.968 188.621l476.877 476.877c11.264 11.264 11.264 29.184 0 40.448s-29.184 11.264-40.448 0l-456.602-456.499-456.499 456.499c-11.264 11.264-29.184 11.264-40.448 0-5.53-5.53-8.499-12.902-8.499-20.173s2.765-14.643 8.499-20.173l476.877-476.877c10.957-11.059 29.184-11.059 40.243-0.102z" />
<glyph unicode="&#xe908;" glyph-name="arrow-2-left" d="M253.051 427.244l476.867-476.867c11.223-11.223 29.235-11.223 40.458 0s11.223 29.235 0 40.458l-456.52 456.54 456.52 456.52c11.223 11.223 11.223 29.235 0 40.458-5.499 5.509-12.923 8.479-20.122 8.479s-14.612-2.755-20.122-8.479l-476.867-476.856c-11.223-11.018-11.223-29.235-0.215-40.253z" />
<glyph unicode="&#xe909;" glyph-name="arrow-2-right" d="M770.56 467.548l-476.856 476.867c-11.223 11.223-29.235 11.223-40.458 0s-11.223-29.235 0-40.458l456.52-456.52-456.52-456.54c-11.223-11.223-11.223-29.235 0-40.458 5.509-5.509 12.923-8.479 20.122-8.479s14.612 2.755 20.122 8.479l476.867 476.856c11.223 11.018 11.223 29.235 0.205 40.253z" />
<glyph unicode="&#xe90a;" glyph-name="arrow-2-top" d="M491.622 706.15l-476.877-476.877c-11.264-11.264-11.264-29.184 0-40.448s29.184-11.264 40.448 0l456.499 456.499 456.499-456.499c11.264-11.264 29.184-11.264 40.448 0 5.53 5.53 8.499 12.902 8.499 20.173s-2.765 14.643-8.499 20.173l-476.774 476.774c-10.957 11.264-29.184 11.264-40.243 0.205z" />
<glyph unicode="&#xe90b;" glyph-name="arrow-3-bottom" d="M81.203 376.218l432.23-432.538 432.333 432.435-50.79 50.893-345.498-345.395v870.707h-72.090v-870.707l-345.498 345.6-50.688-50.995z" />
<glyph unicode="&#xe90c;" glyph-name="arrow-3-left" d="M441.723 880.282l-432.568-432.282 432.425-432.282 50.934 50.79-345.467 345.467h870.758v72.038h-870.758l345.61 345.62-50.934 50.647z" />
<glyph unicode="&#xe90d;" glyph-name="arrow-3-right" d="M585.247 15.718l432.568 432.282-432.425 432.282-50.934-50.79 345.467-345.467h-870.769v-72.038h870.758l-345.61-345.62 50.944-50.647z" />
<glyph unicode="&#xe90e;" glyph-name="arrow-3-top" d="M945.766 519.782l-432.333 432.538-432.23-432.435 50.79-50.893 345.498 345.498v-870.707h72.090v870.605l345.6-345.6 50.586 50.995z" />
<glyph unicode="&#xe90f;" glyph-name="arrow-4-left" d="M824.422 62.259l-119.91-120.32-505.958 505.958 505.958 505.958 119.91-120.422-385.536-385.536 385.536-385.638z" />
<glyph unicode="&#xe910;" glyph-name="arrow-4-right" d="M198.554 833.434l119.91 120.422 505.958-505.958-505.958-505.958-119.91 120.32 385.536 385.536-385.536 385.638z" />
<glyph unicode="&#xe911;" glyph-name="audio" d="M511.795 135.373c0-17.613-10.24-33.69-26.214-41.165-6.144-2.97-12.8-4.301-19.354-4.301-10.445 0-20.685 3.584-29.082 10.445l-248.832 206.234h-132.506c-25.088 0-45.568 20.378-45.568 45.466v181.35c0 25.19 20.378 45.568 45.568 45.568h132.608l248.832 206.234c13.619 11.264 32.461 13.722 48.435 6.144 15.974-7.475 26.214-23.552 26.214-41.165l-0.102-614.81zM686.797 206.541c-1.126-0.102-2.15-0.102-3.277-0.102-11.981 0-23.654 4.71-32.154 13.312l-6.042 6.144c-15.974 15.974-17.818 41.165-4.403 59.29 34.099 45.978 52.122 100.454 52.122 157.594 0 61.44-20.48 119.194-59.085 166.81-14.746 18.125-13.312 44.442 3.174 60.928l6.042 6.042c9.114 9.114 21.299 14.029 34.509 13.312 12.8-0.614 24.883-6.656 32.973-16.691 53.658-65.638 81.92-145.306 81.92-230.4 0-79.258-25.088-154.624-72.499-218.112-7.987-10.547-20.173-17.203-33.28-18.125zM875.008 65.843c-8.192-9.728-20.173-15.565-32.87-16.077-0.614 0-1.229 0-1.946 0-12.083 0-23.654 4.813-32.154 13.312l-5.939 5.939c-16.691 16.691-17.818 43.418-2.662 61.542 73.421 87.347 113.869 198.246 113.869 312.32 0 118.682-43.315 232.858-121.856 321.638-15.974 18.022-15.155 45.261 1.843 62.362l5.939 5.939c8.806 8.909 20.378 13.824 33.587 13.414 12.493-0.307 24.371-5.939 32.666-15.258 94.925-107.213 147.251-245.043 147.251-388.198 0-137.83-48.947-271.667-137.728-376.934z" />
<glyph unicode="&#xe912;" glyph-name="back" d="M985.354 491.141c-60.723 151.020-224.655 226.529-491.837 226.529h-125.911v143.882c0 9.748-3.564 18.186-10.68 25.303s-15.544 10.68-25.293 10.68c-9.748 0-18.186-3.564-25.303-10.68l-287.785-287.795c-7.117-7.127-10.68-15.555-10.68-25.303 0-9.738 3.564-18.166 10.68-25.293l287.795-287.795c7.127-7.117 15.555-10.691 25.303-10.691 9.738 0 18.166 3.574 25.293 10.691 7.117 7.117 10.68 15.544 10.68 25.293v143.913h125.911c36.71 0 69.591-1.116 98.632-3.359 29.041-2.253 57.907-6.277 86.559-12.093 28.672-5.806 53.596-13.763 74.772-23.89 21.166-10.127 40.94-23.142 59.3-39.066 18.371-15.933 33.352-34.847 44.984-56.781 11.612-21.924 20.695-47.862 27.259-77.844 6.543-29.983 9.841-63.898 9.841-101.734 0-20.603-0.942-43.663-2.816-69.14 0-2.243-0.461-6.646-1.403-13.21-0.932-6.564-1.403-11.52-1.403-14.889 0-5.612 1.587-10.301 4.772-14.049 3.195-3.748 7.598-5.612 13.22-5.612 6.001 0 11.233 3.174 15.739 9.554 2.611 3.369 5.038 7.496 7.301 12.37 2.253 4.864 4.782 10.486 7.588 16.855 2.816 6.369 4.782 10.854 5.898 13.486 47.585 106.783 71.383 191.283 71.383 253.491-0.010 74.568-9.943 136.97-29.798 187.177z" />
<glyph unicode="&#xe913;" glyph-name="back-2" d="M268.288 774.861l-257.536-257.536 257.536-257.536c27.136-27.136 71.168-27.136 98.304 0s27.136 71.168 0 98.304l-89.805 89.805h492.237c57.549 0 104.243-46.694 104.243-104.243s-46.592-104.243-104.243-104.243h-104.141c-38.4 0-69.427-31.13-69.427-69.427 0-38.4 31.13-69.427 69.427-69.427h104.141c134.349 0 243.2 108.851 243.2 243.2s-108.851 242.995-243.2 242.995h-492.237l89.805 89.805c27.136 27.136 27.136 71.168 0 98.304s-71.168 27.136-98.304 0z" />
<glyph unicode="&#xe914;" glyph-name="beaker" d="M902.482 948.736h-782.52c-41.994 0-75.909-33.669-75.909-75.715 0-42.025 33.976-75.684 76.216-75.684v-707.553c0-78.367 63.478-142.766 141.865-142.766h498.217c78.387 0 142.92 64.389 142.92 142.766v707.584c40.714 0 75.684 33.669 75.684 75.684-0.020 42.015-34.447 75.684-76.472 75.684zM815.718 89.784c0-30.444-24.986-55.276-55.388-55.276h-498.196c-30.444 0-55.89 24.832-55.89 55.276v91.085h196.301c24.033 0 43.479 19.732 43.479 43.745s-19.476 43.745-43.479 43.745h-196.301v108.605h196.301c24.033 0 43.479 18.995 43.479 42.998 0 24.013-19.476 42.998-43.479 42.998h-196.301v108.616h196.301c24.033 0 43.479 19.732 43.479 43.745s-19.476 43.745-43.479 43.745h-196.301v138.813h609.475c0 0 0-708.096 0-708.096z" />
<glyph unicode="&#xe915;" glyph-name="birthday" d="M689.029 775.311h-106.097l75.008 75.008c11.561 11.561 11.561 30.28 0 41.841s-30.28 11.561-41.841 0l-75.008-75.008v106.097c0 16.353-13.23 29.583-29.583 29.583s-29.583-13.23-29.583-29.583v-106.097l-75.008 75.008c-11.561 11.561-30.28 11.561-41.841 0s-11.561-30.28 0-41.841l75.008-75.008h-106.107c-16.353 0-29.583-13.23-29.583-29.583s13.23-29.583 29.583-29.583h129.649l-84.367-170.701c40.817-5.274 85.514-8.796 132.239-8.796 46.787 0 91.464 3.502 132.26 8.765l-84.378 170.721h129.649c16.353 0 29.583 13.23 29.583 29.583s-13.23 29.594-29.583 29.594zM671.713 489.492c-48.302-7.045-102.502-12.032-160.205-12.032-57.713 0-111.903 4.987-160.205 12.032l-53.985-107.95c59.034-11.971 133.53-22.426 214.18-22.426 80.804 0 155.238 10.435 214.2 22.385l-53.985 107.991zM753.132 326.656c-64.236-13.885-148.47-26.716-241.633-26.716-93.153 0-177.388 12.831-241.623 26.716l-51.825-103.66c60.928-16.968 169.943-41.411 293.458-41.411 123.812 0 232.653 24.412 293.468 41.38l-51.845 103.69zM893.020 44.913l-61.051 124.068c-61.88-18.074-181.432-46.572-320.461-46.572s-258.58 28.508-320.471 46.582l-61.051-124.068c-3.758-7.516-4.137-16.271-1.065-24.064 3.092-7.834 9.329-13.957 17.224-16.906 6.676-2.488 166.257-61.020 365.363-61.020s358.687 58.542 365.363 61.020c7.885 2.949 14.131 9.073 17.224 16.906 3.052 7.793 2.683 16.548-1.075 24.054z" />
<glyph unicode="&#xe916;" glyph-name="block" d="M511.805 950.784c-277.75 0-502.712-224.963-502.712-502.712s224.963-502.712 502.712-502.712 502.712 224.963 502.712 502.712-224.973 502.712-502.712 502.712zM109.64 448.072c0 222.198 179.968 402.166 402.166 402.166 93 0 178.207-31.918 246.323-84.705l-563.784-563.784c-52.787 68.116-84.705 153.324-84.705 246.323zM511.805 45.906c-93 0-178.207 31.918-246.323 84.705l563.784 563.784c52.787-68.116 84.705-153.324 84.705-246.323 0-222.198-179.968-402.166-402.166-402.166z" />
<glyph unicode="&#xe917;" glyph-name="blocks" d="M88.576 324.096h309.453c39.834 0 72.192 32.358 72.192 72.192v144.384c0 39.834-32.358 72.192-72.192 72.192h-309.453c-39.731 0-72.192-32.358-72.192-72.192v-144.384c0-39.834 32.461-72.192 72.192-72.192zM88.576-47.206h309.453c39.834 0 72.192 32.358 72.192 72.192v144.384c0 39.834-32.358 72.192-72.192 72.192h-309.453c-39.834 0-72.192-32.358-72.192-72.192v-144.384c0-39.834 32.461-72.192 72.192-72.192zM934.4 612.864h-309.453c-39.834 0-72.192-32.358-72.192-72.192v-144.384c0-39.834 32.358-72.192 72.192-72.192h309.453c39.834 0 72.192 32.358 72.192 72.192v144.384c0 39.834-32.358 72.192-72.192 72.192zM934.4 241.562h-309.453c-39.834 0-72.192-32.358-72.192-72.192v-144.384c0-39.834 32.358-72.192 72.192-72.192h309.453c39.834 0 72.192 32.358 72.192 72.192v144.384c0 39.834-32.358 72.192-72.192 72.192zM934.4 943.002h-515.686c-39.834 0-72.192-32.358-72.192-72.192v-103.117c0-39.834 32.358-72.192 72.192-72.192h515.686c39.834 0 72.192 32.358 72.192 72.192v103.117c0 39.731-32.358 72.192-72.192 72.192zM263.987 819.2c0-68.374-55.428-123.802-123.802-123.802s-123.802 55.428-123.802 123.802c0 68.374 55.428 123.802 123.802 123.802s123.802-55.428 123.802-123.802z" />
<glyph unicode="&#xe918;" glyph-name="blocks-2" d="M398.049 592.364h-309.453c-39.731 0-72.192-32.358-72.192-72.192v-144.384c0-39.834 32.461-72.192 72.192-72.192h309.453c39.834 0 72.192 32.358 72.192 72.192v144.384c0 39.834-32.358 72.192-72.192 72.192zM398.049 233.349h-309.453c-39.834 0-72.192-32.358-72.192-72.192v-144.384c0-39.834 32.461-72.192 72.192-72.192h309.453c39.834 0 72.192 32.358 72.192 72.192v144.384c0 39.834-32.358 72.192-72.192 72.192zM934.42 592.364h-309.453c-39.834 0-72.192-32.358-72.192-72.192v-144.384c0-39.834 32.358-72.192 72.192-72.192h309.453c39.834 0 72.192 32.358 72.192 72.192v144.384c0 39.834-32.358 72.192-72.192 72.192zM398.049 951.788h-309.453c-39.731 0-72.192-32.358-72.192-72.192v-144.384c0-39.834 32.461-72.192 72.192-72.192h309.453c39.834 0 72.192 32.358 72.192 72.192v144.384c0 39.834-32.358 72.192-72.192 72.192zM934.42 951.788h-309.453c-39.834 0-72.192-32.358-72.192-72.192v-144.384c0-39.834 32.358-72.192 72.192-72.192h309.453c39.834 0 72.192 32.358 72.192 72.192v144.384c0 39.834-32.358 72.192-72.192 72.192zM934.42 233.349h-309.453c-39.834 0-72.192-32.358-72.192-72.192v-144.384c0-39.834 32.358-72.192 72.192-72.192h309.453c39.834 0 72.192 32.358 72.192 72.192v144.384c0 39.834-32.358 72.192-72.192 72.192z" />
<glyph unicode="&#xe919;" glyph-name="blocks-3" d="M935.281 947.825h-515.686c-39.834 0-72.192-32.358-72.192-72.192v-103.117c0-39.834 32.358-72.192 72.192-72.192h515.686c39.834 0 72.192 32.358 72.192 72.192v103.117c0 39.731-32.358 72.192-72.192 72.192zM264.868 824.023c0-68.374-55.428-123.802-123.802-123.802s-123.802 55.428-123.802 123.802c0 68.374 55.428 123.802 123.802 123.802s123.802-55.428 123.802-123.802zM935.281 196.209h-515.686c-39.834 0-72.192-32.358-72.192-72.192v-103.117c0-39.834 32.358-72.192 72.192-72.192h515.686c39.834 0 72.192 32.358 72.192 72.192v103.117c0 39.731-32.358 72.192-72.192 72.192zM264.868 72.407c0-68.374-55.428-123.802-123.802-123.802s-123.802 55.428-123.802 123.802c0 68.374 55.428 123.802 123.802 123.802s123.802-55.428 123.802-123.802zM935.281 572.017h-515.686c-39.834 0-72.192-32.358-72.192-72.192v-103.117c0-39.834 32.358-72.192 72.192-72.192h515.686c39.834 0 72.192 32.358 72.192 72.192v103.117c0 39.731-32.358 72.192-72.192 72.192zM264.868 448.215c0-68.374-55.428-123.802-123.802-123.802s-123.802 55.428-123.802 123.802c0 68.374 55.428 123.802 123.802 123.802s123.802-55.428 123.802-123.802z" />
<glyph unicode="&#xe91a;" glyph-name="buffer" d="M17.807 651.090l484.803-233.359c5.622-2.703 12.175-2.703 17.797 0l484.803 233.359c15.493 7.455 15.493 29.522 0 36.977l-484.813 233.349c-5.622 2.703-12.175 2.703-17.797 0l-484.792-233.349c-15.503-7.455-15.503-29.522 0-36.977zM17.807 429.394l484.803-233.359c5.622-2.703 12.175-2.703 17.797 0l484.803 233.359c15.493 7.455 15.493 29.522 0 36.977l-102.277 49.224-324.864-156.365c-20.634-9.933-43.653-15.176-66.56-15.176s-45.916 5.243-66.591 15.186l-324.823 156.375-102.287-49.234c-15.503-7.465-15.503-29.532 0-36.987zM1005.21 244.675l-102.277 49.234-324.874-156.365c-20.634-9.933-43.653-15.176-66.56-15.176s-45.916 5.243-66.591 15.186l-324.813 156.355-102.287-49.234c-15.493-7.465-15.493-29.522 0-36.977l484.803-233.359c5.622-2.703 12.175-2.703 17.797 0l484.803 233.359c15.493 7.455 15.493 29.522 0 36.977z" />
<glyph unicode="&#xe91b;" glyph-name="build" d="M187.802 600.064h-144.384c-6.656 0-11.981-5.427-11.981-12.083v-553.472c0-6.656 5.427-12.083 11.981-12.083h144.384c6.656 0 12.083 5.427 12.083 12.083v180.531h-96.051c-6.656 0-12.083 5.427-12.083 12.083v72.192c0 6.656 5.427 12.083 12.083 12.083h96.051v96.256h-96.051c-6.656 0-12.083 5.427-12.083 12.083v72.192c0 6.656 5.427 12.083 12.083 12.083h96.051v84.275c0 6.451-5.427 11.776-12.083 11.776zM7.373 696.32c0-19.968 16.179-36.147 36.147-36.147h156.467v72.192h-156.57c-19.968 0.102-36.045-16.077-36.045-36.045zM982.118 600.064h-144.384c-6.656 0-12.083-5.427-12.083-12.083v-84.275h96.256c6.656 0 12.083-5.427 12.083-12.083v-72.192c0-6.656-5.427-12.083-12.083-12.083h-96.256v-96.256h96.256c6.656 0 12.083-5.427 12.083-12.083v-72.192c0-6.656-5.427-12.083-12.083-12.083h-96.256v-180.531c0-6.656 5.427-12.083 12.083-12.083h144.384c6.656 0 12.083 5.427 12.083 12.083v553.882c-0.102 6.656-5.427 11.981-12.083 11.981zM982.118 732.467h-156.467v-72.192h156.467c19.968 0 36.147 16.179 36.147 36.147-0.102 19.866-16.179 36.045-36.147 36.045zM777.523 876.851h-529.408c-19.968 0-36.147-16.179-36.147-36.147s16.179-36.147 36.147-36.147h12.083v-770.048c0-6.656 5.427-12.083 12.083-12.083h481.28c6.656 0 12.083 5.427 12.083 12.083v770.048h12.083c19.968 0 36.147 16.179 36.147 36.147-0.205 19.968-16.384 36.147-36.352 36.147zM457.318 130.867c0-6.656-5.427-12.083-12.083-12.083h-81.408c-6.656 0-12.083 5.427-12.083 12.083v264.704c0 6.656 5.427 12.083 12.083 12.083h81.408c6.656 0 12.083-5.427 12.083-12.083v-264.704zM481.382 594.022v-72.192h-72.192v216.576h72.192v-72.192h72.192v72.192h72.192v-216.576h-72.192v72.192h-72.192zM673.894 130.867c0-6.656-5.427-12.083-12.083-12.083h-81.408c-6.656 0-12.083 5.427-12.083 12.083v264.704c0 6.656 5.427 12.083 12.083 12.083h81.408c6.656 0 12.083-5.427 12.083-12.083v-264.704z" />
<glyph unicode="&#xe91c;" glyph-name="calendario" d="M908.227 822.2h-24.371v-74.23c0-16.343-13.261-29.604-29.604-29.604s-29.604 13.261-29.604 29.604v74.23h-112.169v-74.465c0-16.343-13.261-29.604-29.604-29.604s-29.604 13.261-29.604 29.604v74.465h-112.159v-74.23c0-16.343-13.261-29.604-29.604-29.604s-29.604 13.261-29.604 29.604v74.23h-112.169v-74.465c0-16.343-13.261-29.604-29.604-29.604s-29.604 13.261-29.604 29.604v74.465h-112.169v-74.23c0-16.343-13.261-29.604-29.604-29.604s-29.604 13.261-29.604 29.604v74.23h-24.371c-59.843 0-108.534-48.753-108.534-108.667v-49.48h1010.514v49.48c0 59.914-48.691 108.667-108.534 108.667zM669.655 217.354h157.911v-56.566h-157.911v56.566zM6.246 97.649c0-59.924 48.691-108.646 108.534-108.646h793.446c59.843 0 108.534 48.732 108.534 108.646v507.187h-1010.514v-507.187zM799.13 519.404h58.040c16.343 0 29.604-13.261 29.604-29.604 0-16.364-13.261-29.604-29.604-29.604h-58.040c-16.343 0-29.604 13.24-29.604 29.604 0 16.343 13.261 29.604 29.604 29.604zM799.13 399.677h58.040c16.343 0 29.604-13.261 29.604-29.604 0-16.364-13.261-29.604-29.604-29.604h-58.040c-16.343 0-29.604 13.24-29.604 29.604 0 16.343 13.261 29.604 29.604 29.604zM640.051 519.404h58.040c16.343 0 29.604-13.261 29.604-29.604 0-16.364-13.261-29.604-29.604-29.604h-58.040c-16.343 0-29.604 13.24-29.604 29.604 0 16.343 13.261 29.604 29.604 29.604zM640.051 399.677h58.040c16.343 0 29.604-13.261 29.604-29.604 0-16.364-13.261-29.604-29.604-29.604h-58.040c-16.343 0-29.604 13.24-29.604 29.604 0 16.343 13.261 29.604 29.604 29.604zM610.447 246.958c0 16.364 13.261 29.604 29.604 29.604h217.119c16.343 0 29.604-13.24 29.604-29.604v-115.773c0-16.343-13.261-29.604-29.604-29.604h-217.119c-16.343 0-29.604 13.261-29.604 29.604v115.773zM483.994 519.404h58.040c16.343 0 29.604-13.261 29.604-29.604 0-16.364-13.261-29.604-29.604-29.604h-58.040c-16.343 0-29.604 13.24-29.604 29.604 0 16.343 13.261 29.604 29.604 29.604zM483.994 399.677h58.040c16.343 0 29.604-13.261 29.604-29.604 0-16.364-13.261-29.604-29.604-29.604h-58.040c-16.343 0-29.604 13.24-29.604 29.604 0 16.343 13.261 29.604 29.604 29.604zM483.994 280.515h58.040c16.343 0 29.604-13.24 29.604-29.604 0-16.343-13.261-29.604-29.604-29.604h-58.040c-16.343 0-29.604 13.261-29.604 29.604 0 16.353 13.261 29.604 29.604 29.604zM483.994 160.788h58.040c16.343 0 29.604-13.24 29.604-29.604 0-16.343-13.261-29.604-29.604-29.604h-58.040c-16.343 0-29.604 13.261-29.604 29.604 0 16.364 13.261 29.604 29.604 29.604zM324.915 519.404h58.040c16.343 0 29.604-13.261 29.604-29.604 0-16.364-13.261-29.604-29.604-29.604h-58.040c-16.343 0-29.604 13.24-29.604 29.604 0 16.343 13.261 29.604 29.604 29.604zM324.915 399.677h58.040c16.343 0 29.604-13.261 29.604-29.604 0-16.364-13.261-29.604-29.604-29.604h-58.040c-16.343 0-29.604 13.24-29.604 29.604 0 16.343 13.261 29.604 29.604 29.604zM324.915 280.515h58.040c16.343 0 29.604-13.24 29.604-29.604 0-16.343-13.261-29.604-29.604-29.604h-58.040c-16.343 0-29.604 13.261-29.604 29.604 0 16.353 13.261 29.604 29.604 29.604zM324.915 160.788h58.040c16.343 0 29.604-13.24 29.604-29.604 0-16.343-13.261-29.604-29.604-29.604h-58.040c-16.343 0-29.604 13.261-29.604 29.604 0 16.364 13.261 29.604 29.604 29.604zM165.837 519.404h58.040c16.343 0 29.604-13.261 29.604-29.604 0-16.364-13.261-29.604-29.604-29.604h-58.040c-16.343 0-29.604 13.24-29.604 29.604 0 16.343 13.261 29.604 29.604 29.604zM165.837 399.677h58.040c16.343 0 29.604-13.261 29.604-29.604 0-16.364-13.261-29.604-29.604-29.604h-58.040c-16.343 0-29.604 13.24-29.604 29.604 0 16.343 13.261 29.604 29.604 29.604zM165.837 280.515h58.040c16.343 0 29.604-13.24 29.604-29.604 0-16.343-13.261-29.604-29.604-29.604h-58.040c-16.343 0-29.604 13.261-29.604 29.604 0 16.353 13.261 29.604 29.604 29.604zM165.837 160.788h58.040c16.343 0 29.604-13.24 29.604-29.604 0-16.343-13.261-29.604-29.604-29.604h-58.040c-16.343 0-29.604 13.261-29.604 29.604 0 16.364 13.261 29.604 29.604 29.604zM541.112 877.148c0 16.343-13.261 29.604-29.604 29.604s-29.604-13.261-29.604-29.604v-54.948h59.208v54.948zM883.855 877.148c0 16.343-13.261 29.604-29.604 29.604s-29.604-13.261-29.604-29.604v-54.948h59.208v54.948zM198.359 877.148c0 16.343-13.261 29.604-29.604 29.604s-29.604-13.261-29.604-29.604v-54.948h59.208v54.948zM712.479 876.913c0 16.343-13.261 29.604-29.604 29.604s-29.604-13.261-29.604-29.604v-54.712h59.208v54.712zM369.736 876.913c0 16.343-13.261 29.604-29.604 29.604s-29.604-13.261-29.604-29.604v-54.712h59.208v54.712z" />
<glyph unicode="&#xe91d;" glyph-name="calendario2" d="M385.434 542.433h63.037v-63.037h-63.037v63.037zM574.546 164.209h63.037v-63.037h-63.037v63.037zM763.658 542.433h63.037v-63.037h-63.037v63.037zM574.546 542.433h63.037v-63.037h-63.037v63.037zM385.434 416.358h63.037v-63.037h-63.037v63.037zM196.311 416.358h63.037v-63.037h-63.037v63.037zM763.658 416.358h63.037v-63.037h-63.037v63.037zM574.546 416.358h63.037v-63.037h-63.037v63.037zM385.434 290.284h63.037v-63.037h-63.037v63.037zM196.311 290.284h63.037v-63.037h-63.037v63.037zM763.658 290.284h63.037v-63.037h-63.037v63.037zM574.546 290.284h63.037v-63.037h-63.037v63.037zM385.434 164.209h63.037v-63.037h-63.037v63.037zM196.311 164.209h63.037v-63.037h-63.037v63.037zM1015.808 857.62v-882.534h-1008.609v882.534h189.112v63.037h63.037v-63.037h504.3v63.037h63.037v-63.037h189.123zM70.236 794.583v-126.075h882.534v126.075h-126.075v-63.037h-63.037v63.037h-504.31v-63.037h-63.037v63.037h-126.075zM952.771 38.134v567.337h-882.534v-567.337h882.534z" />
<glyph unicode="&#xe91e;" glyph-name="calendario-hora" d="M784.609 392.704c-122.429 0-221.665-99.482-221.665-222.208s99.246-222.208 221.665-222.208 221.676 99.482 221.676 222.208-99.256 222.208-221.676 222.208v0zM852.572 131.973h-67.963c-16.128 0-29.204 13.076-29.204 29.204v118.641c0 16.128 13.076 29.204 29.204 29.204s29.204-13.076 29.204-29.204v-89.446h38.769c16.128 0 29.204-13.076 29.204-29.204-0.010-16.128-13.087-29.194-29.215-29.194v0zM787.64 833.505h-21.115v-64.307c0-14.162-11.489-25.651-25.651-25.651s-25.651 11.489-25.651 25.651v64.307h-97.167v-64.512c0-14.162-11.489-25.651-25.651-25.651s-25.651 11.489-25.651 25.651v64.512h51.292v47.391c0 14.162-11.489 25.651-25.651 25.651s-25.651-11.489-25.651-25.651v-47.391h-97.137v-64.307c0-14.162-11.489-25.651-25.651-25.651s-25.651 11.489-25.651 25.651v64.307h-97.167v-64.512c0-14.162-11.489-25.651-25.651-25.651s-25.651 11.489-25.651 25.651v64.512h-97.167v-64.307c0-14.162-11.489-25.651-25.651-25.651s-25.651 11.489-25.651 25.651v64.307h-21.094c-51.845 0-94.024-42.23-94.024-94.136v-42.865h875.418v42.865c0 51.907-42.179 94.136-94.024 94.136zM469.606 881.101c0 14.162-11.489 25.651-25.651 25.651s-25.651-11.489-25.651-25.651v-47.606h51.292v47.606zM766.525 881.101c0 14.162-11.489 25.651-25.651 25.651s-25.651-11.489-25.651-25.651v-47.606h51.292v47.606zM172.677 881.101c0 14.162-11.489 25.651-25.651 25.651s-25.651-11.489-25.651-25.651v-47.606h51.292v47.606zM321.137 880.896c0 14.162-11.489 25.651-25.651 25.651s-25.651-11.489-25.651-25.651v-47.391h51.292v47.391zM6.246 205.824c0-51.907 42.179-94.126 94.024-94.126h451.072c-4.762 18.924-7.301 38.738-7.301 59.146 0 13.517 1.126 26.757 3.256 39.67-10.23 3.369-17.633 13.005-17.633 24.361v100.301c0 14.172 11.489 25.651 25.651 25.651h80.998c40.899 32.154 92.447 51.333 148.46 51.333v0c34.468 0 67.246-7.281 96.891-20.357v253.399h-875.418v-439.378zM693.125 571.187h50.289c14.162 0 25.651-11.489 25.651-25.651 0-14.172-11.489-25.651-25.651-25.651h-50.289c-14.162 0-25.651 11.469-25.651 25.651 0 14.162 11.489 25.651 25.651 25.651zM693.125 467.466h50.289c14.162 0 25.651-11.489 25.651-25.651 0-14.172-11.489-25.651-25.651-25.651h-50.289c-14.162 0-25.651 11.469-25.651 25.651 0 14.162 11.489 25.651 25.651 25.651zM555.315 571.187h50.289c14.162 0 25.651-11.489 25.651-25.651 0-14.172-11.489-25.651-25.651-25.651h-50.289c-14.162 0-25.651 11.469-25.651 25.651 0 14.162 11.489 25.651 25.651 25.651zM555.315 467.466h50.289c14.162 0 25.651-11.489 25.651-25.651 0-14.172-11.489-25.651-25.651-25.651h-50.289c-14.162 0-25.651 11.469-25.651 25.651 0 14.162 11.489 25.651 25.651 25.651zM420.116 571.187h50.289c14.162 0 25.651-11.489 25.651-25.651 0-14.172-11.489-25.651-25.651-25.651h-50.289c-14.162 0-25.651 11.469-25.651 25.651 0.010 14.162 11.5 25.651 25.651 25.651zM420.116 467.466h50.289c14.162 0 25.651-11.489 25.651-25.651 0-14.172-11.489-25.651-25.651-25.651h-50.289c-14.162 0-25.651 11.469-25.651 25.651 0.010 14.162 11.5 25.651 25.651 25.651zM420.116 364.237h50.289c14.162 0 25.651-11.469 25.651-25.651 0-14.162-11.489-25.651-25.651-25.651h-50.289c-14.162 0-25.651 11.489-25.651 25.651 0.010 14.172 11.5 25.651 25.651 25.651zM420.116 260.516h50.289c14.162 0 25.651-11.469 25.651-25.651 0-14.162-11.489-25.651-25.651-25.651h-50.289c-14.162 0-25.651 11.489-25.651 25.651 0.010 14.182 11.5 25.651 25.651 25.651zM282.317 571.187h50.289c14.162 0 25.651-11.489 25.651-25.651 0-14.172-11.489-25.651-25.651-25.651h-50.289c-14.162 0-25.651 11.469-25.651 25.651 0 14.162 11.489 25.651 25.651 25.651zM282.317 467.466h50.289c14.162 0 25.651-11.489 25.651-25.651 0-14.172-11.489-25.651-25.651-25.651h-50.289c-14.162 0-25.651 11.469-25.651 25.651 0 14.162 11.489 25.651 25.651 25.651zM282.317 364.237h50.289c14.162 0 25.651-11.469 25.651-25.651 0-14.162-11.489-25.651-25.651-25.651h-50.289c-14.162 0-25.651 11.489-25.651 25.651 0 14.172 11.489 25.651 25.651 25.651zM282.317 260.516h50.289c14.162 0 25.651-11.469 25.651-25.651 0-14.162-11.489-25.651-25.651-25.651h-50.289c-14.162 0-25.651 11.489-25.651 25.651 0 14.182 11.489 25.651 25.651 25.651zM144.507 571.187h50.289c14.162 0 25.651-11.489 25.651-25.651 0-14.172-11.489-25.651-25.651-25.651h-50.289c-14.162 0-25.651 11.469-25.651 25.651 0 14.162 11.489 25.651 25.651 25.651zM144.507 467.466h50.289c14.162 0 25.651-11.489 25.651-25.651 0-14.172-11.489-25.651-25.651-25.651h-50.289c-14.162 0-25.651 11.469-25.651 25.651 0 14.162 11.489 25.651 25.651 25.651zM144.507 364.237h50.289c14.162 0 25.651-11.469 25.651-25.651 0-14.162-11.489-25.651-25.651-25.651h-50.289c-14.162 0-25.651 11.489-25.651 25.651 0 14.172 11.489 25.651 25.651 25.651zM144.507 260.516h50.289c14.162 0 25.651-11.469 25.651-25.651 0-14.162-11.489-25.651-25.651-25.651h-50.289c-14.162 0-25.651 11.489-25.651 25.651 0 14.182 11.489 25.651 25.651 25.651z" />
<glyph unicode="&#xe91f;" glyph-name="camera" d="M944.128 744.141h-88.371l-53.555 93.491c-12.39 21.914-35.533 35.328-60.826 35.328h-304.947c-24.986 0-48.128-13.414-60.826-35.328l-53.555-93.491h-242.893c-38.4 0-69.837-31.437-69.837-69.837v-581.427c0-38.605 31.437-70.042 69.837-70.042h864.768c38.605 0 69.837 31.437 69.837 69.837v581.632c0.205 38.4-31.232 69.837-69.632 69.837zM163.84 538.010c-28.365 0-51.507 23.142-51.507 51.507s23.142 51.507 51.507 51.507 51.507-23.142 51.507-51.507c0-28.262-23.142-51.507-51.507-51.507zM779.059 267.059c-18.842-37.069-49.152-67.789-86.528-86.528-214.016-107.725-427.11 105.574-319.693 319.693 18.842 37.069 49.152 67.789 86.528 86.528 214.016 107.418 427.315-105.882 319.693-319.693z" />
<glyph unicode="&#xe920;" glyph-name="camera2" d="M174.080 759.91h377.856c23.142 0 41.984-18.842 41.984-41.984v-83.968h41.984c66.048 0 120.218-50.79 125.542-115.507l252.314 31.539v-335.872l-252.314 31.539c-5.325-64.717-59.494-115.507-125.542-115.507h-503.808c-69.53 0-125.952 56.422-125.952 125.952v251.904c0 69.53 56.422 125.952 125.952 125.952h377.856v41.984h-335.872v83.968zM761.856 433.869v-103.629l167.936-20.992v145.613l-167.936-20.992zM677.888 508.006c0 23.142-18.842 41.984-41.984 41.984h-503.808c-23.142 0-41.984-18.842-41.984-41.984v-251.904c0-23.142 18.842-41.984 41.984-41.984h503.808c23.142 0 41.984 18.842 41.984 41.984v251.904z" />
<glyph unicode="&#xe921;" glyph-name="camera-off" d="M18.534 940.442c17.92 17.92 47.002 17.92 64.922 0l918.835-918.835c17.92-17.92 17.92-47.002 0-64.922s-47.002-17.92-64.922 0l-918.835 918.733c-17.92 17.92-17.92 47.002 0 65.024zM326.656 770.048c0 25.395 20.582 45.978 45.978 45.978h413.491c25.395 0 45.978-20.582 45.978-45.978v-147.968l108.237 91.341c13.619 11.571 32.768 14.131 48.947 6.554s26.624-23.757 26.624-41.677v-459.366c0-17.92-10.342-34.099-26.624-41.677-16.179-7.578-35.328-5.018-48.947 6.554l-183.91 154.931c-10.342 8.704-16.282 21.606-16.282 35.123v350.31h-367.514c-25.395 0-45.978 20.582-45.978 45.875zM832 395.162v106.701l91.853 77.517v-261.632l-91.853 77.414zM33.485 766.566c17.203 7.066 36.966 3.174 50.074-9.933l597.197-597.197c13.107-13.107 17.101-32.87 9.933-50.074-7.066-17.203-23.859-28.365-42.394-28.365h-597.197c-25.395 0-45.978 20.582-45.978 45.978v597.197c0 18.534 11.162 35.328 28.365 42.394zM96.973 613.274v-440.422h440.422l-440.422 440.422z" />
<glyph unicode="&#xe922;" glyph-name="campana" d="M371.302 32.358c23.757-53.862 77.722-91.443 140.186-91.443s116.429 37.683 140.186 91.443h-280.371zM511.488 858.010c41.267 0 80.896-7.27 117.658-20.582v4.506c0 62.259-50.688 112.947-112.947 112.947h-9.318c-62.259 0-112.947-50.688-112.947-112.947v-4.506c36.659 13.312 76.288 20.582 117.555 20.582zM882.79 91.853h-742.605c-14.029 0-26.931 9.523-29.798 23.245-2.867 13.619 3.277 27.034 15.872 32.87 2.97 1.946 25.498 17.613 47.923 65.229 41.37 87.245 50.074 210.227 50.074 297.984 0 158.413 128.922 287.334 287.334 287.334 158.003 0 286.72-128.205 287.334-286.106 0-0.41 0-0.717 0-1.126 0-87.757 8.704-210.739 49.971-298.086 22.528-47.514 44.954-63.283 47.923-65.229 12.595-5.837 18.739-19.251 15.872-32.87-2.97-13.722-15.872-23.245-29.901-23.245zM897.126 147.763v0 0z" />
<glyph unicode="&#xe923;" glyph-name="cancel" d="M868.004 804.383c-196.557 196.557-516.413 196.577-712.991 0s-196.567-516.413 0-713.001 516.413-196.588 713.001 0c196.557 196.588 196.557 516.434-0.010 713.001zM710.318 249.068c-15.145-15.145-39.69-15.145-54.835 0l-143.974 143.974-150.825-150.825c-15.145-15.145-39.69-15.145-54.835 0s-15.145 39.69 0 54.835l150.825 150.825-143.974 143.974c-15.145 15.145-15.145 39.711 0 54.835 15.145 15.145 39.69 15.145 54.835 0l143.974-143.974 137.114 137.114c15.145 15.145 39.69 15.145 54.835 0s15.145-39.69 0-54.835l-137.114-137.114 143.974-143.974c15.145-15.145 15.145-39.69 0-54.835z" />
<glyph unicode="&#xe924;" glyph-name="candado" d="M794.522 573.645h-31.437v125.747c0 138.752-112.845 251.597-251.597 251.597s-251.494-112.845-251.494-251.597v-125.747h-31.437c-52.019 0-94.31-42.291-94.31-94.31v-440.218c0-52.019 42.394-94.31 94.31-94.31h565.965c52.019 0 94.31 42.291 94.31 94.31v440.218c0 52.019-42.394 94.31-94.31 94.31zM343.757 699.392c0 92.467 75.264 167.731 167.731 167.731s167.731-75.264 167.731-167.731v-125.747h-335.462v125.747zM553.472 249.856v-95.539c0-23.142-18.739-41.882-41.882-41.882s-41.882 18.739-41.882 41.882v95.539c-24.986 14.541-41.882 41.267-41.882 72.192 0 46.285 37.581 83.866 83.866 83.866s83.866-37.581 83.866-83.866c-0.205-30.822-17.203-57.549-42.086-72.192z" />
<glyph unicode="&#xe925;" glyph-name="casa" d="M511.508 686.694l-358.994-295.946c0-0.42-0.102-1.034-0.317-1.874-0.205-0.829-0.317-1.434-0.317-1.864v-299.674c0-10.824 3.953-20.193 11.868-28.088 7.905-7.905 17.275-11.878 28.088-11.878h239.739v239.749h159.846v-239.759h239.729c10.824 0 20.193 3.963 28.088 11.889 7.905 7.885 11.878 17.275 11.878 28.088v299.674c0 1.659-0.225 2.918-0.635 3.738l-358.973 295.946zM1007.841 458.179l-136.724 113.623v254.73c0 5.827-1.874 10.609-5.632 14.356-3.727 3.748-8.52 5.612-14.356 5.612h-119.859c-5.827 0-10.619-1.874-14.367-5.612-3.738-3.748-5.612-8.54-5.612-14.356v-121.743l-152.33 127.375c-13.302 10.824-29.123 16.23-47.442 16.23-18.309 0-34.13-5.407-47.452-16.23l-448.911-373.985c-4.157-3.328-6.441-7.803-6.871-13.414-0.42-5.612 1.034-10.516 4.362-14.684l38.707-46.203c3.338-3.748 7.7-6.031 13.107-6.871 4.997-0.42 9.994 1.044 14.991 4.372l432.036 360.253 432.036-360.253c3.338-2.908 7.7-4.352 13.107-4.352h1.874c5.407 0.819 9.759 3.123 13.107 6.861l38.707 46.193c3.328 4.168 4.782 9.062 4.352 14.684-0.389 5.612-2.673 10.086-6.83 13.414z" />
<glyph unicode="&#xe926;" glyph-name="casa2" d="M1011.2 481.28l-187.29 159.846c0.205 1.126 0.41 2.15 0.614 3.482v209.101c-0.205 12.493-10.035 22.528-22.528 22.938h-104.448c-11.981 0-21.914-10.752-21.914-22.938v-86.63l-149.811 127.795c-8.090 6.963-20.173 6.963-28.467 0l-485.376-413.389c-9.421-7.68-10.547-21.402-2.867-30.822s21.402-10.547 30.822-2.867c0.205 0.205 0.205 0.205 0.41 0.41l471.245 401.203 471.347-401.408c9.216-7.885 22.938-6.758 30.822 2.355 7.68 9.216 6.554 23.040-2.56 30.925zM780.595 678.093l-61.235 51.61v103.014h61.235v-154.624zM914.739 437.043l-388.915 332.288c-8.090 6.963-20.173 6.963-28.467 0l-388.813-332.288c-9.216-7.885-10.24-21.606-2.355-30.822 7.68-9.216 21.197-10.24 30.208-2.662l0.205 0.205 27.341 23.654v-410.112c0.205-12.288 10.24-22.323 22.528-22.528h650.24c12.288 0.205 22.323 10.035 22.528 22.528v410.112l27.341-23.654c3.891-3.277 8.704-5.222 14.029-5.222 6.349 0 12.493 2.867 16.589 7.68 7.987 9.421 6.758 23.245-2.458 30.822zM599.142 38.81h-175.002v236.237h175.002v-236.237zM642.867 38.81v257.434c0 11.981-9.011 22.528-20.992 22.528h-220.467c-11.981 0-20.992-10.547-20.992-22.528v-257.434h-172.851v426.086l304.026 258.97 304.026-258.97v-426.086h-172.749z" />
<glyph unicode="&#xe927;" glyph-name="change" d="M1003.418 219.853l-188.723 157.286c-9.421 7.885-22.426 9.421-33.485 4.301-11.059-5.222-18.125-16.282-18.125-28.467v-94.413h-52.634c-43.622 0-83.558 22.118-106.701 59.085l-203.674 325.939c-46.285 74.035-126.054 118.272-213.402 118.272h-178.483v-125.85h178.483c43.622 0 83.558-22.118 106.701-59.085l203.674-325.837c46.285-74.035 126.054-118.272 213.402-118.272h52.634v-94.413c0-12.186 7.066-23.245 18.125-28.467 4.198-1.946 8.806-2.97 13.312-2.97 7.27 0 14.438 2.458 20.173 7.27l188.723 157.286c7.27 5.939 11.366 14.848 11.366 24.166s-4.096 18.227-11.366 24.166zM1003.418 723.149l-188.723 157.286c-9.421 7.782-22.426 9.421-33.485 4.301s-18.125-16.282-18.125-28.467v-94.413h-52.634c-87.347 0-167.117-44.237-213.402-118.272l-11.366-18.227 74.138-118.682 43.93 70.246c23.142 36.966 63.078 59.085 106.701 59.085h52.634v-94.413c0-12.186 7.066-23.347 18.125-28.467 4.198-1.946 8.806-2.97 13.312-2.97 7.27 0 14.438 2.56 20.173 7.27l188.723 157.286c7.27 5.939 11.366 14.848 11.366 24.166 0 9.421-4.096 18.227-11.366 24.269zM337.306 387.994l-43.827-70.246c-23.142-36.966-63.078-59.187-106.803-59.187h-178.483v-125.85h178.483c87.347 0 167.117 44.237 213.402 118.272l11.366 18.227-74.138 118.784z" />
<glyph unicode="&#xe928;" glyph-name="change2" d="M740.864 470.016l44.339-44.339 220.16 220.16c12.186 12.288 12.186 32.051 0 44.339l-220.16 220.16-44.339-44.646 166.707-166.4h-899.174v-62.874h899.174l-166.707-166.4zM1014.784 259.072h-899.174l166.707 166.4-44.646 44.646-220.16-220.16c-12.186-12.288-12.186-32.051 0-44.339l220.16-220.16 44.339 44.339-166.4 166.298h899.174v62.976z" />
<glyph unicode="&#xe929;" glyph-name="check" d="M305.695 543.59l-70.38-70.38 226.222-226.222 502.712 502.712-70.38 70.38-432.333-432.333-155.843 155.843zM913.971 448.072c0-221.194-180.972-402.166-402.166-402.166s-402.166 180.982-402.166 402.166 180.972 402.166 402.166 402.166c40.212 0 75.407-5.028 110.592-15.084l80.435 80.435c-60.324 20.111-125.676 35.195-191.027 35.195-276.49 0-502.712-226.222-502.712-502.712s226.222-502.702 502.712-502.702 502.712 226.222 502.712 502.712h-100.547z" />
<glyph unicode="&#xe92a;" glyph-name="check-2" d="M770.877 777.093c0 23.439-9.155 45.517-25.733 62.095l-82.79 82.79c-16.353 16.353-39.567 25.733-62.659 25.733h-5.028v-175.657h176.22l-0.010 5.038zM769.669 617.021c-131.297 0-238.111-106.813-238.111-238.111s106.813-238.111 238.111-238.111 238.111 106.813 238.111 238.111-106.813 238.111-238.111 238.111zM902.646 450.816l-110.551-187.085c-7.066-11.96-19.528-19.702-33.382-20.767-1.075-0.082-2.161-0.123-3.236-0.123-12.698 0-24.791 5.683-32.901 15.596l-76.534 93.542c-14.868 18.176-12.186 44.964 5.99 59.832 18.166 14.868 44.964 12.196 59.832-5.99l37.99-46.428 79.575 134.687c11.95 20.214 38.031 26.921 58.235 14.971 20.224-11.95 26.931-38.021 14.981-58.235zM498.637 378.911c0 149.975 122.010 271.995 271.995 271.995 0.338 0 0.686-0.010 1.024-0.010v62.607h-205.701c-16.179 0-28.324 13.097-28.324 29.276v204.933h-439.142c-48.425 0-87.828-39.393-87.828-87.828v-823.613c0-48.425 39.393-87.828 87.828-87.828h584.561c48.425 0 88.607 39.393 88.607 87.828v70.666c-0.338 0-0.676-0.010-1.024-0.010-149.975-0.010-271.995 122.010-271.995 271.985zM157.041 654.961h408.904c16.179 0 29.276-13.097 29.276-29.276s-13.097-29.276-29.276-29.276h-408.904c-16.179 0-29.276 13.097-29.276 29.276s13.097 29.276 29.276 29.276zM157.041 537.856h291.809c16.179 0 29.276-13.097 29.276-29.276s-13.097-29.276-29.276-29.276h-291.809c-16.179 0-29.276 13.097-29.276 29.276s13.097 29.276 29.276 29.276zM157.041 420.751h291.809c16.179 0 29.276-13.097 29.276-29.276s-13.097-29.276-29.276-29.276h-291.809c-16.179 0-29.276 13.097-29.276 29.276s13.097 29.276 29.276 29.276zM127.764 274.371c0 16.179 13.097 29.276 29.276 29.276h291.809c16.179 0 29.276-13.097 29.276-29.276s-13.097-29.276-29.276-29.276h-291.809c-16.179 0-29.276 13.097-29.276 29.276zM565.955 69.448h-175.657c-16.179 0-29.276 13.097-29.276 29.276s13.097 29.276 29.276 29.276h175.657c16.179 0 29.276-13.097 29.276-29.276s-13.097-29.276-29.276-29.276z" />
<glyph unicode="&#xe92b;" d="M827.085 952.832h-629.76c-104.346 0-188.928-84.582-188.928-188.928v-629.76c0-104.346 84.582-188.928 188.928-188.928h629.76c104.346 0 188.928 84.582 188.928 188.928v629.76c0 104.346-84.582 188.928-188.928 188.928z" />
<glyph unicode="&#xe92c;" d="M449.024 234.598l-169.779 166.093 88.064 90.010 80.896-79.155 208.384 207.974 88.986-89.088z" />
<glyph unicode="&#xe92d;" glyph-name="check-3-off" d="M827.085 952.832h-629.76c-104.346 0-188.928-84.582-188.928-188.928v-629.76c0-104.346 84.582-188.928 188.928-188.928h629.76c104.346 0 188.928 84.582 188.928 188.928v629.76c0 104.346-84.582 188.928-188.928 188.928z" />
<glyph unicode="&#xe92e;" d="M796.262-46.858h-569.262c-112.568 0-204.186 91.617-204.186 204.186v581.99c0 112.568 91.617 204.186 204.186 204.186h569.262c112.568 0 204.186-91.617 204.186-204.186v-581.99c0-112.568-91.617-204.186-204.186-204.186zM227 813.844c-41.093 0-74.516-33.434-74.516-74.516v-581.99c0-41.093 33.434-74.516 74.516-74.516h569.262c41.093 0 74.516 33.434 74.516 74.516v581.98c0 41.093-33.434 74.516-74.516 74.516h-569.262z" />
<glyph unicode="&#xe92f;" d="M455.741 180.173l-228.127 193.034 79.442 93.993 127.406-107.817 261.908 357.1 99.277-72.837z" />
<glyph unicode="&#xe930;" glyph-name="check-4-off" d="M796.262-46.858h-569.262c-112.568 0-204.186 91.617-204.186 204.186v581.99c0 112.568 91.617 204.186 204.186 204.186h569.262c112.568 0 204.186-91.617 204.186-204.186v-581.99c0-112.568-91.617-204.186-204.186-204.186zM227 813.844c-41.093 0-74.516-33.434-74.516-74.516v-581.99c0-41.093 33.434-74.516 74.516-74.516h569.262c41.093 0 74.516 33.434 74.516 74.516v581.98c0 41.093-33.434 74.516-74.516 74.516h-569.262z" />
<glyph unicode="&#xe931;" glyph-name="check-box" d="M982.292 954.88h-941.578c-20.019 0-36.209-16.2-36.209-36.219v-941.578c0-20.019 16.2-36.219 36.219-36.219h941.578c20.019 0 36.219 16.2 36.219 36.219v941.578c-0.010 20.019-16.21 36.219-36.229 36.219zM946.084 13.302h-869.151v869.151h869.151v-869.151zM790.61 567.132l-51.21 51.21-300.319-300.329-155.474 155.464-51.21-51.21 206.674-206.674 351.539 351.539z" />
<glyph unicode="&#xe932;" glyph-name="check-box-empty" d="M982.292 954.88h-941.578c-20.019 0-36.209-16.2-36.209-36.219v-941.578c0-20.019 16.2-36.219 36.219-36.219h941.578c20.019 0 36.219 16.2 36.219 36.219v941.578c-0.010 20.019-16.21 36.219-36.229 36.219zM946.084 13.302h-869.151v869.151h869.151v-869.151z" />
<glyph unicode="&#xe933;" glyph-name="checklist" d="M780.083 886.067h-162.918c-18.432 41.779-59.904 68.813-105.677 68.813s-87.142-27.034-105.677-68.813h-162.918c-61.44-0.102-111.309-49.869-111.309-111.411v-722.432c0.102-61.44 49.869-111.309 111.309-111.411h537.19c61.44 0.102 111.309 49.869 111.411 111.411v722.432c-0.102 61.44-49.869 111.309-111.411 111.411zM424.243 835.379c11.878 0 22.221 8.294 24.781 19.866 6.246 28.365 32.563 48.947 62.566 48.947s56.32-20.582 62.566-48.947c2.56-11.674 12.8-19.866 24.781-19.866h50.278v-22.221c0-33.485-27.136-60.621-60.621-60.621h-154.010c-33.485 0-60.621 27.136-60.621 60.621v22.221h50.278zM840.806 52.224c0-33.485-27.136-60.621-60.621-60.621h-537.293c-33.485 0-60.621 27.136-60.621 60.621v722.432c0 33.485 27.136 60.621 60.621 60.621h80.282v-22.221c0.102-61.44 49.869-111.309 111.411-111.309h153.805c61.44 0.102 111.309 49.869 111.309 111.309v22.221h80.282c33.485 0 60.621-27.136 60.621-60.621v-722.432zM636.928 486.502l-166.4-162.509-84.48 82.534c-9.933 9.728-25.907 9.626-35.635-0.205-9.83-9.83-9.83-25.805-0.102-35.738l0.307-0.307 102.195-99.84c9.83-9.626 25.6-9.626 35.43 0l184.115 179.814c9.933 9.83 10.138 25.805 0.41 35.738s-25.805 10.24-35.84 0.512v0z" />
<glyph unicode="&#xe934;" glyph-name="cite-left" d="M5.335 251.658c0-133.417 108.145-241.562 241.562-241.562s241.562 108.145 241.562 241.562-108.145 241.562-241.562 241.562c-27.423 0-53.668-4.782-78.234-13.199 54.364 311.777 297.492 512.84 72.11 347.361-249.907-183.501-235.704-568.34-235.428-575.396 0-0.113-0.010-0.205-0.010-0.328zM536.771 251.658c0-133.417 108.145-241.562 241.562-241.562s241.572 108.145 241.572 241.562-108.155 241.562-241.572 241.562c-27.423 0-53.668-4.782-78.234-13.199 54.364 311.777 297.492 512.84 72.11 347.361-249.907-183.501-235.704-568.34-235.428-575.396 0-0.113-0.010-0.205-0.010-0.328z" />
<glyph unicode="&#xe935;" glyph-name="cleaner" d="M991.027 927.232c-26.010 26.010-68.301 26.010-94.31 0l-265.728-265.728-157.901 157.901c-40.038 40.038-104.858 40.038-144.896 0l-113.664-113.664 14.131-14.131-196.608-125.85c-11.776-7.475-19.456-19.968-20.89-33.792-1.536-13.824 3.379-27.648 13.21-37.478l533.811-533.811c8.704-8.704 20.378-13.517 32.563-13.517 1.638 0 3.277 0.102 4.915 0.307 13.824 1.536 26.317 9.216 33.792 20.89l125.85 196.608 14.131-14.131 113.766 113.766c40.038 40.038 40.038 104.858 0 144.896l-157.901 157.696 265.728 265.728c26.010 26.010 26.010 68.301 0 94.31zM582.758 66.048l-91.443 91.443 89.805 133.837-133.837-89.702-76.902 76.902 57.139 85.197-85.197-57.139-87.245 87.245 69.325 103.322-103.322-69.325-91.136 91.136 165.478 105.882 393.421-393.421-106.086-165.376z" />
<glyph unicode="&#xe936;" glyph-name="clipboard" d="M865.853 852.695h-211.671c-20.736 58.675-76.38 101.161-142.377 101.161s-121.641-42.486-142.377-101.161h-211.671c-55.89 0-101.161-45.271-101.161-101.161v-708.086c0-55.89 45.271-101.161 101.161-101.161h708.096c55.89 0 101.161 45.271 101.161 101.161v708.096c-0.010 55.89-45.281 101.151-101.161 101.151zM511.805 852.695c27.822 0 50.575-22.508 50.575-50.575s-22.764-50.575-50.575-50.575-50.575 22.508-50.575 50.575 22.753 50.575 50.575 50.575zM612.956 144.609h-354.038v101.161h354.048v-101.161zM764.692 346.921h-505.774v101.161h505.774v-101.161zM764.692 549.233h-505.774v101.161h505.774v-101.161z" />
<glyph unicode="&#xe937;" glyph-name="close" d="M555.93 448l310.784 310.784c12.288 12.288 12.288 32.154 0 44.339-12.288 12.288-32.154 12.288-44.339 0l-310.886-310.784-310.784 310.784c-12.288 12.288-32.154 12.288-44.339 0-12.288-12.288-12.288-32.154 0-44.339l310.784-310.784-310.784-310.784c-12.288-12.288-12.288-32.154 0-44.339s32.154-12.288 44.339 0l310.784 310.784 310.784-310.784c12.288-12.288 32.154-12.288 44.339 0s12.288 32.154 0 44.339l-310.682 310.784z" />
<glyph unicode="&#xe938;" glyph-name="codigo-qr" d="M251.843 424.233h47.258v-47.258h47.227v-47.227h-236.093v47.227h47.227v94.484h94.484v-47.227c0 0-0.102 0-0.102 0zM865.679-0.676h47.155v47.227h-47.155v-47.227zM299.069 424.233h47.227v47.227h-47.227v-47.227zM960-0.676h47.258v47.227h-47.258v-47.227zM393.554-47.862h94.382v47.227h-94.382c0 0 0-47.227 0-47.227zM818.422-47.862v47.227h-47.258v-47.227h47.258zM629.586-47.862h47.227v94.454h-47.227v-94.454zM251.843 565.873v-47.227h141.64v47.227h-141.64zM204.687 518.687v47.227h-94.484v-94.454h47.227v47.227c0 0 47.258 0 47.258 0zM346.296 613.13h-330.486v330.455h330.486v-330.455zM299.069 896.358h-236.093v-236.032h236.093v236.032zM110.203 46.551h141.609v141.65h-141.609v-141.65zM582.328 93.819v-47.258h47.288v47.258h-47.288zM251.843 849.132h-141.609v-141.578h141.609c0 0 0 141.578 0 141.578zM1007.227 943.585v-330.486h-330.486v330.486h330.486zM960 896.358h-236.032v-236.032h236.032c0 0 0 236.032 0 236.032zM15.749 282.685h330.516v-330.486h-330.516v330.486zM63.007-0.676h236.093v236.104h-236.093v-236.104zM63.007 565.873h-47.258v-236.093h47.258v236.093zM676.741 329.841v-47.155h47.227v47.155h-47.227zM535.101 140.974v47.227h-47.196v-47.258h-94.382v-94.484h94.382v-47.227h47.196v94.484h47.258v47.227l-47.258 0.031zM393.554 754.708h94.382v47.288h-94.382c0 0.010 0-47.288 0-47.288zM771.195 377.006h94.515v-47.227h47.196v141.609h-47.196v94.484h-47.288v-141.64h-141.548v-47.258h47.227v-47.227h47.227v47.227h-0.133v0.031zM818.422 235.428h-47.258v47.258h-47.227v-94.484h-141.609v-47.258h94.515v-94.484h47.227v-47.227h47.227v94.484h188.805v47.227h-141.609v94.484h-0.072zM818.422 235.428h47.288v94.423h-47.288v-94.423zM440.719 235.428v47.258h47.155v47.155h47.196v47.227h47.258v94.484h141.609v94.484h-47.227v-47.227h-47.227v188.846h-47.227v94.484h47.227v141.476h-47.227v-94.454h-47.217v94.454h-141.619v-94.454h47.227v47.227h47.155v-94.382h47.227v-141.64h47.227v-47.227h-47.217v-94.454h-47.227v94.454h-47.155v47.196h-47.237v-94.454h47.227v-47.227h-47.227v-141.681h47.227v94.484h47.155v-94.484h-47.155v-47.227h-47.227v-141.548h94.382v47.227h-47.084zM960 188.201v47.227h-94.382v-47.227h94.382zM912.773 849.132h-141.578v-141.578h141.578v141.578zM535.101 235.428h94.515v47.258h-47.288v47.155h-47.258v-94.423h0.031zM629.586 329.841v47.227h-47.288v-47.227h47.288zM912.773 518.687h94.484v47.227h-94.484v-47.227zM960 140.974h47.258v47.227h-47.258v-47.227zM960 424.233h47.258v47.227h-47.258v-47.227zM535.101 660.326h-47.196v-47.227h47.196v47.227z" />
<glyph unicode="&#xe939;" glyph-name="colgar" d="M822.477 414.618l9.114-3.584 8.806-4.403 121.856-67.686c32.256-17.92 53.248-50.79 56.32-87.245l0.41-9.216v-139.878c0-108.954-103.219-186.982-206.541-152.064-141.21 47.616-275.149 108.442-386.355 183.706-25.19 17.101-31.846 51.302-14.746 76.595 17.101 25.19 51.302 31.846 76.595 14.746 101.786-68.813 227.226-125.747 359.834-170.496 28.57-9.626 57.139 10.035 60.621 41.267l0.307 6.349v139.776l-121.856 67.686-129.946-64.922c-10.854-5.427-23.142-7.168-35.021-4.813-15.565 2.97-39.731 9.933-69.018 22.426-28.058 11.878-41.062 44.339-29.184 72.294 11.878 28.058 44.339 41.062 72.294 29.184 9.216-3.891 17.51-7.066 24.678-9.421l5.222-1.638 111.514 55.706c26.726 13.21 57.344 15.053 85.094 5.632zM980.685 929.075c19.866-19.866 21.402-51.2 4.608-72.806l-4.608-5.222-882.176-882.176c-21.504-21.504-56.422-21.504-77.926 0-19.866 19.866-21.402 51.098-4.608 72.806l4.608 5.222 882.074 882.176c21.606 21.504 56.525 21.504 78.029 0zM307.507 953.856c36.966 0 71.27-18.534 91.648-48.947l4.813-7.885 67.482-121.446c16.077-28.877 18.227-63.386 6.246-93.798l-3.994-9.011-55.706-111.309 0.614-1.843c1.331-4.096 2.867-8.602 4.71-13.517l2.97-7.68c11.264-28.262-2.458-60.314-30.72-71.68-28.262-11.264-60.314 2.458-71.68 30.72-4.403 10.957-7.987 20.992-10.752 30.003l-4.813 16.384c-1.331 4.915-2.253 9.318-3.072 13.107-1.843 9.523-1.126 19.354 1.946 28.467l2.765 6.656 64.922 129.946-67.482 121.446h-139.878c-34.816 0-57.958-30.515-47.616-60.928 42.496-125.747 96.051-245.658 160.666-344.986 16.589-25.498 9.318-59.699-16.179-76.288s-59.699-9.318-76.288 16.179c-70.144 108.339-127.386 236.134-172.544 369.971-33.792 100.147 38.605 200.192 142.336 206.234l9.83 0.307h139.776z" />
<glyph unicode="&#xe93a;" glyph-name="configuration1" d="M534.569 661.555c0.942 7.639 2.324 15.196 2.324 23.142s-1.382 15.493-2.324 23.153l44.462 33.649c9.912 7.496 12.677 21.228 6.461 32.031l-39.916 69.079c-6.216 10.752-19.487 15.237-30.935 10.404l-51.18-21.565c-12.483 9.523-25.764 17.92-40.417 24.033l-6.799 54.323c-1.577 12.329-12.042 21.617-24.474 21.617h-79.79c-12.431 0-22.948-9.277-24.474-21.617l-6.81-54.323c-14.653-6.113-27.976-14.551-40.407-24.033l-51.18 21.565c-11.489 4.833-24.76 0.399-30.986-10.404l-39.864-69.079c-6.216-10.762-3.461-24.474 6.461-32.031l44.462-33.649c-0.983-7.649-2.365-15.196-2.365-23.153 0-7.946 1.382-15.493 2.314-23.142l-44.452-33.659c-9.923-7.496-12.687-21.217-6.472-32.020l39.916-69.079c6.226-10.762 19.497-15.237 30.945-10.404l51.169 21.617c12.483-9.523 25.764-17.92 40.417-24.033l6.81-54.323c1.577-12.39 12.032-21.658 24.463-21.658h79.79c12.442 0 22.948 9.267 24.474 21.617l6.81 54.323c14.653 6.113 27.976 14.551 40.417 24.023l51.169-21.555c11.5-4.833 24.771-0.399 30.986 10.404l39.875 69.079c6.216 10.762 3.451 24.474-6.472 32.020l-44.411 33.649zM351.857 586.015c-54.528 0-98.693 44.165-98.693 98.683 0 54.528 44.165 98.693 98.693 98.693 54.518 0 98.683-44.165 98.683-98.693 0-54.518-44.165-98.683-98.683-98.683zM853.801 391.803c2.898 3.953 6.011 7.731 8.489 12.145 2.468 4.424 4.045 9.042 5.908 13.588l35.174 4.884c7.844 1.085 13.65 7.864 13.548 15.8l-0.717 50.821c-0.113 7.905-6.093 14.531-13.967 15.401l-35.154 3.922c-3.983 9.175-8.755 17.971-15.002 25.928l13.107 32.317c2.959 7.352 0.020 15.759-6.892 19.62l-44.36 24.801c-6.912 3.86-15.647 1.976-20.326-4.403l-20.675-28.088c-10.045 1.157-20.081 0.604-29.932-0.799l-21.75 27.894c-4.884 6.257-13.65 7.916-20.47 3.85l-43.633-26.020c-6.799-4.055-9.533-12.534-6.369-19.814l14.264-32.532c-2.929-3.953-6.042-7.711-8.509-12.134-2.468-4.413-4.045-9.042-5.908-13.588l-35.174-4.895c-7.844-1.085-13.65-7.854-13.548-15.79l0.717-50.821c0.113-7.916 6.103-14.531 13.967-15.411l35.164-3.891c3.983-9.175 8.755-17.971 15.002-25.928l-13.097-32.328c-2.98-7.373-0.041-15.78 6.871-19.651l44.36-24.801c6.922-3.871 15.636-1.976 20.326 4.403l20.675 28.088c10.045-1.157 20.081-0.604 29.942 0.799l21.75-27.894c4.895-6.267 13.65-7.926 20.47-3.85l43.643 26.010c6.799 4.055 9.523 12.534 6.359 19.814l-14.254 32.553zM728.73 406.6c-30.321 16.947-41.144 55.235-24.197 85.545 16.947 30.321 55.235 41.144 85.545 24.187 30.31-16.947 41.134-55.235 24.187-85.545s-55.224-41.134-85.535-24.187zM45.548 429.251c-11.059-0.205-19.937-9.196-19.937-20.255v-374.671c0-5.591 4.536-10.127 10.127-10.127h96.102c9.073 0 17.009 5.99 19.487 14.705l89.651 315.924c5.796 20.419-5.14 41.892-25.119 49.142-36.7 13.373-93.010 26.573-170.312 25.283zM916.91 206.51c-81.019 0-243.077-102.543-324.106-102.543s-172.186 62.034-172.186 62.034 109.148-20.255 172.186-20.255 81.019 21.514 81.019 50.647c0 70.892-120.402 81.91-181.34 91.187-59.802 33.3-90.87 59.638-189.921 68.024-0.573-5.796-1.464-11.551-3.082-17.265l-81.377-286.833c92.16-41.933 250.9-108.339 334.193-108.339 121.539 0 445.655 162.058 445.655 202.568s-40.52 60.774-81.039 60.774z" />
<glyph unicode="&#xe93b;" glyph-name="configuration2" d="M549.489 735.642c-1.29 24.146-25.969 20.040-50.053 20.040 17.797-4.741 34.621-11.325 50.053-20.040zM292.076 796.16c-93.481 0-136.509-118.323-61.778-177.838 25.477 68.024 76.186 116.869 142.674 136.151-18.196 25.139-47.575 41.687-80.896 41.687zM98.949 636.846c3.809-12.227 8.745-23.951 14.612-35.062l-30.71-30.72c-8.243-8.243-8.243-21.627 0-29.891l54.129-54.149c3.942-3.942 9.339-6.164 14.971-6.164 5.571 0 10.936 2.222 14.94 6.164l30.669 30.72c4.608-2.437 9.708-3.932 14.469-6.031 0 0.348-0.031 0.717-0.031 1.065 0 25.108 2.888 48.794 8.018 71.035-37.038 23.839-61.747 65.208-61.747 112.445 0 73.789 60.027 133.827 133.796 133.827 49.951 0 93.082-27.812 116.101-68.434 24.576 3.052 47.667 3.052 75.459-2.202-3.574 10.813-7.782 21.402-13.046 31.324l30.71 30.74c4.004 3.963 6.226 9.339 6.226 14.94s-2.222 10.977-6.226 14.94l-54.098 54.108c-4.137 4.137-9.544 6.195-14.94 6.195s-10.803-2.058-14.909-6.195l-30.802-30.74c-11.131 5.898-22.825 10.834-35.072 14.561v43.418c0 11.663-9.411 21.115-21.105 21.115h-76.554c-11.622 0-21.135-9.462-21.135-21.115v-43.428c-12.227-3.727-23.921-8.663-35.082-14.561l-30.7 30.71c-4.147 4.137-9.544 6.195-14.94 6.195s-10.834-2.058-14.94-6.175l-54.159-54.108c-3.942-3.973-6.164-9.339-6.164-14.961 0-5.612 2.222-10.977 6.164-14.94l30.71-30.72c-5.868-11.131-10.803-22.845-14.541-35.062h-43.397c-11.694 0-21.135-9.472-21.135-21.146v-76.554c0-11.643 9.441-21.135 21.135-21.135h43.325zM762.092 227.205c33.853 18.565 57.108 54.108 57.108 95.355 0 60.191-48.988 109.148-109.179 109.148-21.166 0-40.776-6.328-57.539-16.794-10.035-39.946-25.836-78.162-46.51-111.35 58.593-11.018 112.364-37.693 156.119-76.36zM988.006 363.868c0 12.605-10.24 22.804-22.794 22.804h-46.838c-4.045 13.199-9.411 25.856-15.77 37.857l33.157 33.157c4.311 4.27 6.687 10.066 6.687 16.118s-2.386 11.848-6.687 16.128l-58.368 58.388c-4.434 4.454-10.301 6.697-16.128 6.697-5.837 0-11.663-2.232-16.097-6.697l-33.229-33.178c-11.991 6.359-24.617 11.694-37.868 15.718v46.838c0 12.585-10.168 22.794-22.753 22.794h-82.586c-5.53 0-10.404-2.222-14.377-5.499 6.953-25.375 10.762-52.89 10.762-82.237 0-18.637-1.454-37.55-4.168-56.361 15.37 5.663 31.734 9.226 49.060 9.226 78.899 0 143.104-64.184 143.104-143.063 0-50.422-26.337-94.607-65.853-120.095 28.754-31.539 51.61-68.946 66.488-110.868 2.447-0.84 4.997-1.454 7.547-1.454 5.827 0 11.663 2.222 16.128 6.676l58.399 58.388c4.27 4.27 6.625 10.066 6.625 16.118s-2.355 11.837-6.625 16.128l-33.229 33.178c6.359 11.991 11.725 24.648 15.77 37.857h46.838c6.031 0 11.889 2.386 16.128 6.697 4.27 4.26 6.697 10.066 6.697 16.118l-0.020 82.565zM807.24 70.953c-35.41 104.202-128.993 175.862-237.015 185.62-36.178-38.308-80.957-62.607-131.676-62.607-50.678 0-95.498 24.3-131.635 62.607-108.083-9.759-201.667-81.418-237.087-185.631l-19.579-57.62c-5.601-16.579-2.918-34.847 7.291-49.080 10.199-14.234 26.634-22.682 44.124-22.682h673.741c17.521 0 33.956 8.448 44.155 22.682 10.168 14.223 12.882 32.492 7.25 49.080l-19.569 57.631zM262.892 512.768c0-129.239 78.674-267.919 175.667-267.919 97.024 0 175.698 138.68 175.698 267.919 0 267.909-351.365 268.442-351.365 0z" />
<glyph unicode="&#xe93c;" glyph-name="configuration3" d="M641.29 530.688l-18.657 44.247c0 0 43.284 97.669 39.526 101.427l-57.324 55.992c-3.994 3.86-101.734-40.694-101.734-40.694l-45.097 18.207c0 0-39.936 99.011-45.332 99.011h-80.968c-5.601 0-42.435-99.277-42.435-99.277l-45.066-18.278c0 0-99.83 42.435-103.649 38.779l-57.293-56.136c-3.963-3.932 41.646-99.625 41.646-99.625l-18.586-44.247c0 0-101.192-38.912-101.192-44.237v-79.329c0-5.468 101.427-41.574 101.427-41.574l18.616-44.104c0 0-43.315-97.741-39.526-101.499l57.364-56.064c3.86-3.789 101.673 40.827 101.673 40.827l45.128-18.35c0 0 39.834-98.939 45.302-98.939h80.968c5.571 0 42.496 99.277 42.496 99.277l45.097 18.278c0 0 99.686-42.435 103.547-38.779l57.324 56.136c3.932 3.789-41.718 99.553-41.718 99.553l18.657 44.247c0 0 101.222 39.045 101.222 44.38v79.258c0.051 5.437-101.417 41.513-101.417 41.513zM373.924 332.206c-65.085 0-118.17 51.927-118.17 115.712 0 63.713 53.094 115.64 118.17 115.64 65.188 0 118.17-51.927 118.17-115.64 0-63.826-52.982-115.712-118.17-115.712zM980.091 623.073l0.481 23.091c0 0 38.195 34.365 37.274 36.762l-14.141 35.799c-1.055 2.458-52.746 2.12-52.746 2.12l-16.189 16.804c0 0 1.987 51.313-0.44 52.378l-35.564 15.954c-2.529 1.126-38.164-35.359-38.164-35.359l-23.368 0.922c0 0-35.492 38.226-37.888 37.304l-36.25-13.425c-2.427-0.85-1.229-51.855-1.229-51.855l-16.906-15.821c0 0-52.029 2.806-53.094 0.481l-15.616-34.847c-1.096-2.458 36.383-38.226 36.383-38.226l-0.481-22.958c0 0-38.164-34.437-37.243-36.833l14.182-35.84c1.024-2.396 52.716-2.017 52.716-2.017l16.159-16.876c0 0-1.874-51.313 0.543-52.378l35.564-15.882c2.458-1.126 38.124 35.154 38.124 35.154l23.398-0.788c0 0 35.43-38.226 37.888-37.376l36.147 13.425c2.499 0.85 1.3 51.927 1.3 51.927l16.876 15.677c0 0 52.029-2.662 53.125-0.338l15.616 34.847c0.983 2.406-36.454 38.175-36.454 38.175zM898.335 615.997c-12.534-28.017-46.019-40.448-74.711-27.638-28.559 12.739-41.677 45.988-29.143 74.066 12.472 27.945 46.049 40.315 74.609 27.566 28.6-12.872 41.718-46.049 29.245-73.994z" />
<glyph unicode="&#xe93d;" glyph-name="configuration4" d="M628.941 364.032h-18.432c-6.963 0-13.107 4.301-15.565 10.854-2.048 5.325-4.198 10.65-6.656 15.77-2.97 6.349-1.638 13.824 3.379 18.739l13.107 13.21c19.558 19.661 19.456 51.507-0.102 71.066l-47.411 47.411c-19.661 19.558-51.405 19.558-71.168 0l-13.005-13.107c-4.915-4.915-12.39-6.246-18.739-3.379-5.222 2.355-10.445 4.608-15.872 6.758-6.554 2.355-10.957 8.602-10.854 15.565v18.432c0 27.75-22.528 50.278-50.278 50.278h-67.072c-27.75 0-50.278-22.528-50.278-50.278v-18.432c0-6.963-4.301-13.107-10.854-15.565-5.325-2.048-10.65-4.198-15.77-6.656-6.349-2.97-13.824-1.536-18.739 3.379l-13.312 13.107c-19.661 19.558-51.405 19.558-71.066 0l-47.411-47.514c-19.558-19.661-19.558-51.405 0-71.168l13.107-13.107c4.915-4.915 6.246-12.39 3.379-18.739-2.355-5.222-4.608-10.445-6.656-15.872-2.355-6.554-8.704-10.854-15.667-10.854h-18.432c-27.853 0.102-50.381-22.426-50.381-50.278v-67.072c0-27.75 22.528-50.278 50.278-50.278h18.432c6.963 0 13.107-4.301 15.565-10.854 2.048-5.325 4.198-10.65 6.656-15.77 2.97-6.349 1.638-13.824-3.379-18.739l-13.107-13.21c-19.558-19.661-19.558-51.405 0-71.066l47.411-47.411c19.661-19.558 51.405-19.558 71.168 0l13.107 13.107c4.915 4.915 12.39 6.246 18.739 3.379 5.222-2.355 10.445-4.608 15.872-6.758 6.554-2.355 10.957-8.602 10.957-15.565v-18.432c0-27.75 22.528-50.278 50.278-50.278h67.072c27.75 0 50.278 22.528 50.278 50.278v18.432c0 6.963 4.301 13.107 10.854 15.565 5.325 2.048 10.65 4.198 15.77 6.656 6.349 2.97 13.824 1.536 18.739-3.379l13.21-13.107c19.661-19.558 51.507-19.456 71.066 0.102l47.411 47.411c19.558 19.661 19.558 51.405 0 71.168l-13.107 13.107c-4.915 4.915-6.246 12.39-3.379 18.739 2.355 5.222 4.608 10.445 6.758 15.872 2.355 6.554 8.602 10.957 15.565 10.854h18.432c27.75 0 50.278 22.528 50.278 50.278v67.072c0.102 27.75-22.426 50.278-50.176 50.278zM645.734 246.579v0c0-9.216-7.475-16.794-16.794-16.794h-18.432c-20.89-0.102-39.526-13.005-47.002-32.461-1.741-4.71-3.686-9.318-5.734-13.824-8.602-19.046-4.608-41.472 10.035-56.32l13.107-13.107c6.554-6.554 6.554-17.203 0-23.757 0 0 0 0 0 0l-47.411-47.411c-6.554-6.554-17.203-6.554-23.757 0l-13.107 13.107c-14.848 14.746-37.274 18.739-56.32 10.035-4.506-2.048-9.216-3.994-13.824-5.734-19.456-7.475-32.358-26.112-32.461-46.899v-18.432c0-9.216-7.475-16.794-16.794-16.794h-67.072c-9.216 0-16.794 7.475-16.794 16.794v18.432c-0.102 20.89-13.005 39.526-32.461 47.002-4.71 1.741-9.318 3.686-13.824 5.734-19.046 8.602-41.472 4.608-56.32-10.035l-13.107-13.107c-6.554-6.554-17.203-6.554-23.757 0 0 0 0 0 0 0l-47.411 47.309c-6.554 6.554-6.554 17.203 0 23.757l13.107 13.107c14.643 14.848 18.739 37.274 10.035 56.32-2.048 4.506-3.994 9.216-5.734 13.824-7.475 19.456-26.112 32.358-46.899 32.461h-18.432c-9.216 0-16.794 7.475-16.794 16.794v67.072c0 9.216 7.475 16.794 16.794 16.794h18.432c20.89 0.102 39.526 13.005 47.002 32.461 1.741 4.71 3.686 9.318 5.734 13.824 8.602 19.046 4.608 41.472-10.035 56.32l-13.21 13.107c-6.554 6.554-6.554 17.203 0 23.757 0 0 0 0 0 0l47.411 47.411c6.554 6.554 17.203 6.554 23.757 0l13.107-13.107c14.848-14.746 37.274-18.739 56.32-10.035 4.506 2.048 9.216 3.994 13.824 5.734 19.456 7.475 32.358 26.112 32.461 46.899v18.432c0 9.216 7.475 16.794 16.794 16.794h67.072c9.216 0 16.794-7.475 16.794-16.794v-18.432c0.102-20.89 13.005-39.526 32.461-47.002 4.71-1.741 9.318-3.686 13.824-5.734 19.046-8.602 41.472-4.608 56.32 10.035l13.107 13.107c6.554 6.554 17.203 6.554 23.757 0l47.411-47.411c6.554-6.554 6.554-17.203 0-23.757l-13.107-13.107c-14.643-14.848-18.739-37.274-10.035-56.32 2.048-4.506 3.994-9.216 5.734-13.824 7.475-19.456 26.112-32.358 46.899-32.461h18.432c9.216 0 16.794-7.475 16.794-16.794v-66.97zM493.466 298.906c-0.512 4.301-1.126 8.602-2.048 12.698-0.614 2.765-1.331 5.427-2.048 8.192-0.922 3.482-1.946 6.861-3.174 10.24-0.819 2.355-1.638 4.608-2.56 6.963-2.15 5.325-4.608 10.65-7.373 15.667-0.205 0.41-0.307 0.819-0.614 1.229-4.403 7.782-9.421 15.155-15.053 22.016-0.512 0.614-1.024 1.126-1.536 1.741-2.355 2.765-4.71 5.427-7.168 7.885-1.331 1.331-2.662 2.662-4.096 3.891-1.638 1.536-3.379 3.072-5.018 4.608-2.048 1.741-4.096 3.482-6.246 5.12l-2.765 2.048c-26.010 19.456-57.549 29.901-89.907 29.901-1.638 0-3.379-0.205-5.018-0.307-3.584-0.102-7.168-0.307-10.752-0.717-1.946-0.205-3.789-0.41-5.734-0.717-5.427-0.717-10.854-1.741-16.282-3.072-80.896-20.787-129.434-103.219-108.544-184.013 13.722-53.248 55.296-94.822 108.544-108.544 0.307 0 0.512-0.102 0.819-0.102 5.837-1.434 11.674-2.56 17.613-3.379 3.891-0.512 7.782-0.614 11.776-0.819 2.662-0.102 5.018-0.512 7.782-0.512 4.813 0 9.728 0.307 14.848 0.819 0.512 0 1.024 0.102 1.638 0.205 4.096 0.41 8.192 1.024 12.39 1.946 1.638 0.307 3.277 0.717 4.813 1.126 2.97 0.717 5.939 1.434 8.909 2.253 2.355 0.717 4.608 1.536 6.963 2.355s4.71 1.638 7.066 2.56c2.355 0.922 4.403 1.946 6.554 2.97 2.867 1.331 5.632 2.56 8.397 4.096h0.102c15.667 8.397 30.106 18.842 43.008 31.027 3.482 3.277 6.554 6.963 9.011 10.957 13.107 20.992 21.709 44.442 25.293 68.915 0.512 3.277 0.922 6.451 1.126 9.83 0.205 3.072 0.41 6.042 0.512 9.114 0 0.922 0.102 1.843 0.102 2.867 0 2.355-0.205 4.506-0.307 6.861-0.307 3.994-0.512 8.090-1.024 12.083zM461.005 275.866c0-1.434-0.102-2.765-0.205-4.198-0.307-4.096-0.819-8.090-1.536-12.186-6.246-34.918-27.955-65.126-58.982-82.227-2.048-1.126-4.096-2.15-6.144-3.072l-1.434-0.717c-9.728-4.403-20.070-7.578-30.618-9.216-0.717-0.102-1.536-0.205-2.253-0.307-2.048-0.307-4.198-0.512-6.246-0.717-2.662-0.205-5.427-0.41-8.192-0.41-1.126 0-2.355 0-3.482 0-3.994 0-7.885 0.307-11.878 0.717l-2.048 0.205c-4.608 0.614-9.216 1.434-13.722 2.56-62.874 16.077-100.762 80.077-84.685 142.848 10.65 41.472 43.008 73.933 84.48 84.582v0c9.626 2.458 19.558 3.686 29.491 3.686 4.813 0 9.626-0.307 14.336-1.024 1.229-0.102 2.56-0.41 3.789-0.614 3.584-0.614 7.168-1.331 10.752-2.15 1.126-0.307 2.355-0.614 3.482-0.922 8.909-2.56 17.51-6.144 25.6-10.752 1.331-0.717 2.56-1.536 3.789-2.355 2.662-1.638 5.222-3.379 7.782-5.222 1.331-1.024 2.765-1.946 3.994-2.97 3.277-2.662 6.451-5.427 9.421-8.397 1.229-1.229 2.253-2.56 3.482-3.789 1.946-2.048 3.789-4.198 5.632-6.554 1.229-1.536 2.458-3.174 3.584-4.813 1.638-2.458 3.379-4.915 4.915-7.475 0.819-1.434 1.638-2.765 2.56-4.198 2.15-3.994 4.096-8.090 5.734-12.288 0.717-1.638 1.229-3.379 1.843-5.018 1.126-3.072 2.048-6.246 2.867-9.318 0.41-1.638 0.922-3.174 1.229-4.813 1.024-4.506 1.741-9.114 2.15-13.722 0.102-1.229 0.102-2.458 0.205-3.686 0.307-3.686 0.41-7.578 0.307-11.469zM964.506 598.835h-52.736c-7.066-0.102-13.312 4.403-15.667 10.957-5.222 15.565-11.469 30.822-18.842 45.466-3.072 6.349-1.843 14.029 3.174 18.944l37.376 37.478c19.661 19.661 19.661 51.507 0 71.168l-71.373 71.168c-19.661 19.661-51.507 19.661-71.168 0l-37.376-37.376c-4.915-5.018-12.595-6.349-18.944-3.277-14.746 7.373-29.901 13.722-45.466 18.944-6.656 2.253-11.162 8.602-11.059 15.667v52.838c0 27.75-22.528 50.278-50.278 50.278h-100.659c-27.75 0-50.278-22.528-50.278-50.278v-52.736c0.102-7.066-4.403-13.312-10.957-15.667-15.565-5.222-30.822-11.571-45.466-18.944-6.349-3.174-14.029-1.843-18.944 3.174l-37.478 37.376c-19.661 19.558-51.507 19.558-71.168 0l-71.168-71.168c-19.661-19.661-19.661-51.507 0-71.168l54.989-55.091c6.656-6.451 17.306-6.246 23.757 0.41 6.246 6.451 6.349 16.794 0 23.347l-55.091 55.091c-6.554 6.554-6.554 17.203 0 23.757l71.168 71.168c6.554 6.554 17.203 6.554 23.757 0l37.478-37.376c15.155-15.258 38.4-19.046 57.651-9.421 13.312 6.656 27.034 12.39 41.165 17.101 20.378 6.861 33.997 26.010 33.894 47.514v52.634c0 9.216 7.475 16.794 16.794 16.794h100.659c9.216 0 16.794-7.475 16.794-16.794v-52.736c-0.102-21.504 13.619-40.55 33.894-47.411 14.131-4.71 27.853-10.445 41.165-17.101 19.251-9.523 42.496-5.734 57.651 9.523l37.478 37.376c6.554 6.554 17.203 6.554 23.757 0l71.168-71.168c6.554-6.554 6.554-17.203 0-23.654l-37.376-37.478c-15.258-15.155-19.046-38.4-9.421-57.651 6.656-13.312 12.39-27.034 17.101-41.165 6.861-20.378 26.010-33.997 47.514-33.894h52.736c9.216 0 16.794-7.475 16.794-16.794v-100.659c0-9.216-7.475-16.794-16.794-16.794h-52.736c-21.504 0.102-40.55-13.619-47.411-33.894-4.71-14.131-10.445-27.853-17.101-41.165-9.523-19.251-5.734-42.496 9.523-57.651l37.376-37.478c6.554-6.554 6.554-17.203 0-23.757l-71.27-71.168c-6.554-6.554-17.203-6.554-23.654 0l-55.091 54.989c-6.451 6.656-17.101 6.861-23.757 0.41s-6.861-17.101-0.41-23.757c0.102-0.102 0.307-0.307 0.41-0.41l55.091-54.989c19.661-19.661 51.507-19.661 71.168 0l71.168 71.168c19.661 19.661 19.661 51.507 0 71.168l-37.683 37.376c-5.018 4.915-6.349 12.595-3.277 18.944 7.373 14.746 13.722 29.901 18.944 45.466 2.253 6.656 8.602 11.162 15.667 11.059h52.736c27.75 0 50.278 22.528 50.278 50.278v100.659c0.102 27.853-22.426 50.381-50.176 50.381zM716.083 343.962c84.992 85.197 84.992 223.232 0 308.429-85.197 84.992-223.232 84.992-308.429 0-6.451-6.656-6.246-17.306 0.41-23.757 6.451-6.246 16.794-6.246 23.347 0 71.578 72.499 188.416 73.318 261.018 1.741s73.318-188.416 1.741-261.018c-0.614-0.614-1.126-1.126-1.741-1.741-6.656-6.451-6.861-17.101-0.41-23.757s17.101-6.861 23.757-0.41c0 0.307 0.102 0.41 0.307 0.512z" />
<glyph unicode="&#xe93e;" glyph-name="contract" d="M774.451 781.722c0 23.757-9.318 46.182-26.112 62.976l-83.968 83.968c-16.691 16.691-40.243 26.214-63.693 26.214h-5.12v-178.278h178.79l0.102 5.12zM545.485 341.811c5.734 17.306 15.565 33.382 28.57 46.387l201.114 200.294v128.717h-208.691c-16.384 0-28.774 13.312-28.774 29.696v207.974h-445.542c-49.152 0-89.088-39.936-89.088-89.088v-835.789c0-49.152 39.936-89.088 89.088-89.088h593.203c49.152 0 89.907 39.936 89.907 89.088v221.696l-32.666-31.846c-13.21-13.107-28.672-22.63-46.182-28.467l-94.413-31.539-14.438-0.819c-23.757 0-46.285 11.571-60.314 30.925-13.824 19.251-17.613 44.339-10.138 66.867l28.365 84.992zM151.552 420.147h296.141c16.384 0 29.696-13.312 29.696-29.696s-13.312-29.696-29.696-29.696h-296.141c-16.384 0-29.696 13.312-29.696 29.696s13.21 29.696 29.696 29.696zM121.856 509.235c0 16.384 13.312 29.696 29.696 29.696h296.141c16.384 0 29.696-13.312 29.696-29.696s-13.312-29.696-29.696-29.696h-296.141c-16.486 0-29.696 13.312-29.696 29.696zM121.856 271.565c0 16.384 13.312 29.696 29.696 29.696h296.141c16.384 0 29.696-13.312 29.696-29.696s-13.312-29.696-29.696-29.696h-296.141c-16.486 0-29.696 13.312-29.696 29.696zM566.477 123.085c16.384 0 29.696-13.312 29.696-29.696s-13.312-29.696-29.696-29.696h-178.278c-16.384 0-29.696 13.312-29.696 29.696s13.312 29.696 29.696 29.696h178.278zM151.552 598.426c-16.384 0-29.696 13.312-29.696 29.696s13.312 29.696 29.696 29.696h414.925c16.384 0 29.696-13.312 29.696-29.696s-13.312-29.696-29.696-29.696h-414.925zM599.347 315.597l-25.805-77.517c-3.891-11.571 7.168-22.63 18.842-18.739l77.517 25.907-70.554 70.349zM830.054 560.128l-195.686-195.584 84.378-84.378c44.237 44.237 130.253 130.253 195.686 195.686l-84.378 84.275zM999.526 645.325c-10.445 10.547-25.805 16.486-42.086 16.486s-31.642-6.042-42.189-16.486l-43.213-43.213 84.378-84.378c23.654 23.654 39.936 39.936 43.213 43.213 23.142 23.245 23.142 61.133-0.102 84.378zM999.629 560.947c0 0 0 0 0 0 0.102 0.102 0.102 0.102 0.205 0.205-0.102-0.102-0.102-0.102-0.205-0.205zM999.834 561.152c0.102 0.102 0.205 0.205 0.307 0.307-0.205-0.102-0.307-0.205-0.307-0.307zM1000.038 561.357c0.205 0.205 0.205 0.205 0 0v0z" />
<glyph unicode="&#xe93f;" glyph-name="copy" d="M690.381-57.037h-526.029c-63.795 0-115.712 51.917-115.712 115.712v568.013c0 63.795 51.917 115.712 115.712 115.712h20.992c17.408 0 31.539-14.131 31.539-31.539s-14.131-31.539-31.539-31.539h-20.992c-28.979 0-52.634-23.552-52.634-52.634v-568.115c0-28.979 23.654-52.634 52.634-52.634h526.029c28.979 0 52.634 23.654 52.634 52.634v20.992c0 17.408 14.131 31.539 31.539 31.539s31.539-14.131 31.539-31.539v-20.992c0-63.795-51.917-115.61-115.712-115.61zM858.624 195.379h-441.754c-63.795 0-115.712 51.917-115.712 115.712v526.029c0 63.795 51.917 115.712 115.712 115.712h441.856c63.795 0 115.712-51.917 115.712-115.712v-526.029c-0.102-63.795-51.917-115.712-115.814-115.712zM416.87 889.754c-28.979 0-52.634-23.654-52.634-52.634v-526.029c0-28.979 23.654-52.634 52.634-52.634h441.856c28.979 0 52.634 23.654 52.634 52.634v526.029c0 28.979-23.552 52.634-52.634 52.634h-441.856z" />
<glyph unicode="&#xe940;" glyph-name="curriculum" d="M836.608 747.213v139.571h-229.171c-7.578 37.069-40.448 65.024-79.667 65.024s-72.090-27.955-79.667-65.024h-359.219v-845.312h97.485v-97.485h747.725v705.741l-97.485 97.485zM804.147 733.798l74.547-74.547h-74.547v74.547zM804.147 779.674l-9.523 9.523h-185.549v65.024h195.072v-74.547zM121.344 74.035v780.288h325.12v-65.024h-260.096v-715.264h-65.024zM218.931-23.552v780.288h227.533v-48.742c0-26.931 21.914-48.742 48.742-48.742 26.931 0 48.742 21.914 48.742 48.742v146.33h-32.461v-146.33c0-8.909-7.27-16.282-16.282-16.282-8.909 0-16.282 7.27-16.282 16.282v162.509c0 26.931 21.914 48.742 48.742 48.742 26.931 0 48.742-21.914 48.742-48.742v-211.354h32.461v97.485h162.509v-130.048h130.048v-650.24h-682.496zM560.23 139.059c134.451 0 243.814 109.363 243.814 243.814s-109.363 243.814-243.814 243.814-243.814-109.363-243.814-243.814 109.363-243.814 243.814-243.814zM560.23 171.52c-59.699 0-113.664 24.986-152.166 65.024h304.23c-38.4-39.936-92.262-65.024-152.064-65.024zM535.962 405.914c-15.258 8.909-24.474 24.576-24.474 41.984v32.461c0 13.619 5.734 26.726 15.872 35.942 10.138 9.318 23.347 13.824 37.376 12.595 24.883-2.15 44.339-24.986 44.339-51.917v-29.082c0-17.408-9.114-33.075-24.474-41.984l-8.090-4.71v-46.899l78.438-22.426c20.787-5.939 35.328-25.293 35.328-46.899v-15.974h-260.096v15.974c0 21.606 14.541 40.96 35.328 46.899l78.438 22.426v46.899l-7.987 4.71zM560.23 594.227c116.531 0 211.354-94.822 211.354-211.354 0-51.2-18.33-98.202-48.742-134.861v36.966c0 36.045-24.269 68.198-58.982 78.131l-54.886 15.667v4.301c20.275 15.258 32.461 39.322 32.461 64.717v29.082c0 43.725-32.563 80.691-74.035 84.378-22.733 2.048-45.363-5.734-62.157-20.992-16.794-15.36-26.419-37.171-26.419-59.904v-32.461c0-25.395 12.288-49.459 32.461-64.717v-4.301l-54.579-15.667c-34.714-9.933-58.982-42.086-58.982-78.131v-36.966c-30.413 36.659-48.742 83.661-48.742 134.861 0 116.429 94.822 211.251 211.251 211.251zM251.392 106.496h617.677v-32.461h-617.677v32.461zM251.392 41.472h552.653v-32.461h-552.653v32.461zM836.608 41.472h32.461v-32.461h-32.461v32.461z" />
<glyph unicode="&#xe941;" glyph-name="dashboard" d="M919.859 406.528v320.307c55.296 7.987 97.997 55.501 97.997 113.050 0 63.078-51.302 114.381-114.381 114.381s-114.278-51.302-114.278-114.381h-784.077v-653.312h490.803c8.499-136.499 121.958-245.043 260.506-245.043 144.077 0 261.325 117.248 261.325 261.325 0.102 82.33-38.195 155.75-97.894 203.674zM903.475 921.6c45.056 0 81.715-36.659 81.715-81.715s-36.659-81.715-81.715-81.715c-45.056 0-81.715 36.659-81.715 81.715s36.762 81.715 81.715 81.715zM37.786 807.219h756.224c3.891-13.005 10.138-25.088 18.125-35.738l-99.942-99.942c-6.451 3.072-13.414 4.915-20.992 4.915s-14.643-1.843-20.992-4.915l-32.87 32.87c3.072 6.451 4.915 13.414 4.915 20.992 0 27.034-22.016 49.050-49.050 49.050s-49.050-22.016-49.050-49.050c0-7.578 1.843-14.643 4.915-20.992l-81.92-81.92c-6.451 3.072-13.414 4.915-20.992 4.915-27.034 0-49.050-22.016-49.050-49.050s22.016-49.050 49.050-49.050 49.050 22.016 49.050 49.050c0 7.578-1.843 14.643-4.915 20.992l81.92 81.92c6.451-3.072 13.414-4.915 20.992-4.915s14.643 1.843 20.992 4.915l32.87-32.87c-3.072-6.451-4.915-13.414-4.915-20.992 0-27.034 22.016-49.050 49.050-49.050s49.050 22.016 49.050 49.050c0 7.578-1.843 14.643-4.915 20.992l99.942 99.942c14.95-11.162 32.666-18.842 52.019-21.606v-297.984c-38.502 22.323-83.046 35.43-130.662 35.43-78.029 0-148.070-34.611-195.994-89.088v72.704h-97.997v-195.994h37.478c-2.048-10.65-3.277-21.606-3.891-32.666h-458.445v588.083zM691.2 643.891c9.011 0 16.384-7.27 16.384-16.384s-7.373-16.384-16.384-16.384c-9.011 0-16.384 7.27-16.384 16.384s7.373 16.384 16.384 16.384zM576.819 725.504c0 9.011 7.373 16.384 16.384 16.384s16.384-7.27 16.384-16.384-7.373-16.384-16.384-16.384c-9.011 0.102-16.384 7.373-16.384 16.384zM462.541 578.56c0-9.011-7.373-16.384-16.384-16.384s-16.384 7.27-16.384 16.384 7.373 16.384 16.384 16.384 16.384-7.373 16.384-16.384zM756.531 72.192c-72.090 0-130.662 58.573-130.662 130.662s58.573 130.662 130.662 130.662 130.662-58.573 130.662-130.662-58.675-130.662-130.662-130.662zM527.872 329.114c-7.782-14.131-14.336-28.979-19.456-44.544h-13.21v130.662h32.666v-86.118zM740.147 430.694v-65.331c-82.432-8.192-147.046-77.926-147.046-162.509 0-23.859 5.325-46.592 14.541-67.072l-56.627-32.768c-14.746 30.208-23.245 64-23.245 99.738 0.102 120.73 93.901 219.546 212.378 227.942v0zM756.531-25.805c-78.643 0-148.070 39.936-189.235 100.557l56.934 32.87c29.696-41.165 77.926-68.096 132.403-68.096s102.707 26.931 132.403 68.096l56.934-32.87c-41.37-60.621-110.797-100.557-189.44-100.557zM961.946 103.117l-56.627 32.768c9.216 20.48 14.541 43.11 14.541 67.072 0 84.582-64.614 154.317-147.046 162.509v65.331c118.477-8.397 212.378-107.315 212.378-227.84 0-35.84-8.499-69.632-23.245-99.84v0zM756.531 300.851c-54.067 0-97.997-43.93-97.997-97.997s43.93-97.997 97.997-97.997 97.997 43.93 97.997 97.997c0 54.067-43.93 97.997-97.997 97.997zM756.531 137.523c-36.045 0-65.331 29.286-65.331 65.331s29.286 65.331 65.331 65.331 65.331-29.286 65.331-65.331c0-36.045-29.286-65.331-65.331-65.331zM70.451 774.554h32.666v-32.666h-32.666v32.666zM135.782 774.554h228.762v-32.666h-228.762v32.666zM70.451 709.222h32.666v-32.666h-32.666v32.666zM135.782 709.222h228.762v-32.666h-228.762v32.666zM70.451 643.891h32.666v-32.666h-32.666v32.666zM135.782 643.891h228.762v-32.666h-228.762v32.666zM70.451 578.56h32.666v-32.666h-32.666v32.666zM135.782 578.56h228.762v-32.666h-228.762v32.666zM70.451 251.904h97.997v163.328h-97.997v-163.328zM103.117 382.566h32.666v-97.997h-32.666v97.997zM201.114 251.904h97.997v130.662h-97.997v-130.662zM233.779 349.901h32.666v-65.331h-32.666v65.331zM331.878 251.904h97.997v261.325h-97.997v-261.325zM364.544 480.563h32.666v-195.994h-32.666v195.994z" />
<glyph unicode="&#xe942;" glyph-name="design-3d" d="M695.808 26.010h-88.269l-13.005 171.827h-165.376l-13.005-171.827h-88.269c-16.179 0-29.286-13.107-29.286-29.286s13.107-29.286 29.286-29.286h368.026c16.179 0 29.286 13.107 29.286 29.286s-13.21 29.286-29.389 29.286v0zM800.666 786.534v-245.658c0-9.626-4.71-18.534-12.595-24.064l-259.584-179.917c-9.626-6.656-22.63-7.578-33.69 0.205l-259.277 179.814c-7.885 5.427-12.595 14.438-12.595 24.064v245.555h-118.272c-16.179 0-29.286-13.107-29.286-29.286v-471.654c0-16.179 13.107-29.286 29.286-29.286 19.866 0 824.218 0 814.387 0 16.179 0 29.286 13.107 29.286 29.286v471.757c0 16.179-13.107 29.286-29.286 29.286l-118.374-0.102zM482.509 416.87v203.674l-201.011 139.366v-203.674l201.011-139.366zM541.082 416.87l201.114 139.366v203.776l-201.114-139.469v-203.674zM511.795 671.437l208.179 144.384c0 0-192.102 133.12-191.59 132.813-10.035 6.963-23.347 6.963-33.28 0l-191.488-132.813 208.179-144.384z" />
<glyph unicode="&#xe943;" glyph-name="diagnostic" d="M770.877 777.093c0 23.439-9.155 45.517-25.733 62.095l-82.79 82.79c-16.353 16.353-39.567 25.733-62.659 25.733h-5.028v-175.657h176.22l-0.010 5.038zM545.311 343.593c5.601 17.009 15.38 32.85 28.129 45.681l198.216 197.417v126.812h-205.701c-16.179 0-28.324 13.097-28.324 29.276v204.933h-439.142c-48.425 0-87.828-39.393-87.828-87.828v-823.613c0-48.425 39.393-87.828 87.828-87.828h584.561c48.425 0 88.607 39.393 88.607 87.828v218.491l-32.174-31.396c-13.036-12.923-28.303-22.323-45.517-28.078l-93.082-31.078-14.182-0.768c-23.439 0-45.629 11.407-59.412 30.505-13.67 19.016-17.377 43.653-9.953 65.925l27.976 83.722zM157.041 420.751h291.809c16.179 0 29.276-13.097 29.276-29.276s-13.097-29.276-29.276-29.276h-291.809c-16.179 0-29.276 13.097-29.276 29.276s13.097 29.276 29.276 29.276zM127.764 508.58c0 16.179 13.097 29.276 29.276 29.276h291.809c16.179 0 29.276-13.097 29.276-29.276s-13.097-29.276-29.276-29.276h-291.809c-16.179 0-29.276 13.097-29.276 29.276zM127.764 274.371c0 16.179 13.097 29.276 29.276 29.276h291.809c16.179 0 29.276-13.097 29.276-29.276s-13.097-29.276-29.276-29.276h-291.809c-16.179 0-29.276 13.097-29.276 29.276zM565.955 128c16.179 0 29.276-13.097 29.276-29.276s-13.097-29.276-29.276-29.276h-175.657c-16.179 0-29.276 13.097-29.276 29.276s13.097 29.276 29.276 29.276h175.657zM157.041 596.408c-16.179 0-29.276 13.097-29.276 29.276s13.097 29.276 29.276 29.276h408.904c16.179 0 29.276-13.097 29.276-29.276s-13.097-29.276-29.276-29.276h-408.904zM598.344 317.686l-25.467-76.411c-3.82-11.448 7.076-22.333 18.524-18.514l76.37 25.508-69.427 69.417zM825.713 558.725l-192.809-192.809 83.149-83.149c43.581 43.581 128.369 128.389 192.799 192.819l-83.139 83.139zM992.737 642.693c-10.291 10.353-25.446 16.271-41.513 16.271s-31.222-5.919-41.574-16.292l-42.537-42.537 83.139-83.139c23.286 23.296 39.383 39.393 42.547 42.547 22.866 22.886 22.866 60.191-0.061 83.149zM992.788 559.524c0.010 0 0.010 0 0 0 0.082 0.082 0.113 0.113 0.174 0.174-0.061-0.061-0.092-0.092-0.174-0.174zM992.963 559.698c0.092 0.092 0.205 0.205 0.256 0.256-0.051-0.051-0.164-0.164-0.256-0.256zM993.229 559.954c0.184 0.195 0.184 0.195 0 0v0z" />
<glyph unicode="&#xe944;" glyph-name="doc" d="M667.648 953.856h-406.426c-59.392 0-107.725-48.333-107.725-107.725v-398.234h-10.547c-23.962 0-43.418-19.456-43.418-43.418v-263.168c0-23.962 19.456-43.418 43.418-43.418h10.547v-48.23c0-59.392 48.333-107.725 107.725-107.725h554.598c59.392 0 107.622 48.333 107.622 107.725v649.318l-255.795 254.874zM171.418 368.333c15.155 2.458 34.918 3.789 55.808 3.789 34.714 0 57.139-6.246 74.752-19.456 18.944-14.131 30.822-36.557 30.822-68.813 0-34.918-12.698-59.085-30.31-73.933-19.251-15.974-48.435-23.552-84.173-23.552-21.402 0-36.557 1.331-46.899 2.662v179.302zM815.821 7.885h-554.598c-23.040 0-41.677 18.739-41.677 41.779v48.23h517.018c23.962 0 43.418 19.456 43.418 43.418v263.168c0 23.962-19.456 43.418-43.418 43.418h-517.12v398.234c0 22.938 18.739 41.677 41.677 41.677l381.747 0.41v-141.107c0-41.267 33.485-74.65 74.65-74.65l138.24 0.41 1.536-623.206c0.205-23.040-18.534-41.779-41.472-41.779zM351.539 278.118c0 54.682 34.918 95.642 88.883 95.642 56.115 0 86.63-41.984 86.63-92.365 0-59.802-36.25-96.154-89.6-96.154-54.17 0-85.914 40.858-85.914 92.877zM647.68 219.648c12.493 0 26.214 2.765 34.406 5.939l6.246-32.256c-7.578-3.789-24.678-7.885-46.797-7.885-63.078 0-95.642 39.219-95.642 91.238 0 62.259 44.442 96.973 99.635 96.973 21.402 0 37.683-4.301 44.954-8.090l-8.397-32.768c-8.397 3.584-20.070 6.758-34.714 6.758-32.768 0-58.266-19.763-58.266-60.416 0.102-36.454 21.709-59.494 58.573-59.494zM288.87 282.419c0.307 37.99-21.914 57.958-57.446 57.958-9.216 0-15.155-0.819-18.739-1.638v-119.398c3.482-0.819 9.216-0.819 14.336-0.819 37.478-0.205 61.85 20.378 61.85 63.898zM483.43 280.064c0 32.768-15.667 60.928-44.134 60.928-27.853 0-44.134-26.522-44.134-62.054 0-35.738 16.794-60.928 44.442-60.928 27.853 0 43.827 26.522 43.827 62.054z" />
<glyph unicode="&#xe945;" glyph-name="docs" d="M892.006 776.909c0 23.45-9.114 45.466-25.702 62.054l-82.739 82.739c-16.384 16.384-39.526 25.702-62.669 25.702h-5.12v-175.616h176.23v5.12zM687.002 713.318c-16.179 0-28.365 13.107-28.365 29.286v204.902h-439.091c-48.435 0-87.859-39.424-87.859-87.859v-823.603c0-48.435 39.424-87.859 87.859-87.859h584.602c48.435 0 88.576 39.424 88.576 87.859v677.274h-205.722zM278.118 654.746h465.92c16.179 0 29.286-13.107 29.286-29.286s-13.107-29.286-29.286-29.286h-465.92c-16.179 0-29.286 13.107-29.286 29.286s13.107 29.286 29.286 29.286zM278.118 537.702h465.92c16.179 0 29.286-13.107 29.286-29.286s-13.107-29.286-29.286-29.286h-465.92c-16.179 0-29.286 13.107-29.286 29.286s13.107 29.286 29.286 29.286zM278.118 420.557h465.92c16.179 0 29.286-13.107 29.286-29.286s-13.107-29.286-29.286-29.286h-465.92c-16.179 0-29.286 13.107-29.286 29.286s13.107 29.286 29.286 29.286zM248.832 274.125c0 16.179 13.107 29.286 29.286 29.286h291.84c16.179 0 29.286-13.107 29.286-29.286s-13.107-29.286-29.286-29.286h-291.84c-16.179 0.102-29.286 13.107-29.286 29.286zM687.002 69.222h-175.616c-16.179 0-29.286 13.107-29.286 29.286s13.107 29.286 29.286 29.286h175.616c16.179 0 29.286-13.107 29.286-29.286s-13.107-29.286-29.286-29.286z" />
<glyph unicode="&#xe946;" glyph-name="double-check" d="M511.805 952.832c-278.323 0-504.76-226.427-504.76-504.76s226.427-504.76 504.76-504.76 504.76 226.427 504.76 504.76-226.437 504.76-504.76 504.76zM828.109 567.583l-282.173-289.362c-6.728-6.902-15.944-10.824-25.59-10.885-0.072 0-0.154 0-0.225 0-9.554 0-18.729 3.799-25.498 10.557l-54.733 54.733-53.064-54.415c-6.728-6.902-15.944-10.824-25.59-10.885-0.072 0-0.154 0-0.225 0-9.554 0-18.729 3.799-25.498 10.557l-127.672 127.693c-14.080 14.080-14.080 36.905 0 50.985s36.905 14.080 50.985 0l101.868-101.868 28.201 28.928-21.955 21.955c-14.080 14.080-14.080 36.905 0 50.985s36.905 14.080 50.985 0l21.309-21.309 178.135 182.682c13.906 14.254 36.731 14.541 50.985 0.645 14.254-13.906 14.541-36.731 0.645-50.985l-178.76-183.327 29.563-29.563 256.676 263.219c13.906 14.254 36.731 14.541 50.985 0.645 14.254-13.906 14.541-36.731 0.645-50.985z" />
<glyph unicode="&#xe947;" glyph-name="download" d="M75.848 369.992l421.396-421.601c3.963-3.963 9.308-6.154 14.909-6.154s10.957 2.232 14.909 6.195l420.127 421.56c6.021 6.021 7.793 15.084 4.547 22.958-3.287 7.875-10.957 12.974-19.456 12.974h-231.67v526.531c0 11.622-9.431 21.064-21.064 21.064h-336.978c-11.622 0-21.064-9.431-21.064-21.064v-526.531h-230.789c-8.509 0-16.179-5.14-19.456-13.015-3.287-7.885-1.434-16.896 4.588-22.917z" />
<glyph unicode="&#xe948;" glyph-name="download2" d="M758.067 491.93c-5.018 11.162-16.179 18.227-28.365 18.227h-124.621v405.402c0 17.203-13.926 31.13-31.13 31.13h-124.826c-17.203 0-31.13-13.926-31.13-31.13v-405.299h-124.723c-12.186 0-23.347-7.168-28.365-18.227-5.12-11.162-3.072-24.166 4.915-33.382l218.214-249.446c5.939-6.758 14.438-10.65 23.45-10.65s17.51 3.891 23.45 10.65l218.214 249.446c8.090 9.011 10.035 22.118 4.915 33.28zM854.426 260.813v-187.085h-685.875v187.085h-124.723v-249.446c0-34.509 27.955-62.362 62.362-62.362h810.598c34.509 0 62.362 27.853 62.362 62.362v249.446h-124.723z" />
<glyph unicode="&#xe949;" glyph-name="duplicated" d="M790.323 920.955h-508.058c-42.875 0-76.544-33.669-76.544-76.524v-61.194h-119.357c-42.844 0-76.513-33.669-76.513-76.524v-654.961c0-42.865 33.669-76.544 76.513-76.544h654.991c42.834 0 76.524 33.679 76.524 76.544v61.194h119.347c42.834 0 76.524 33.69 76.524 76.554v520.294l-223.427 211.159zM337.347 204.78c-6.093-6.134-15.299-9.185-21.402-9.185-6.124 0-15.299 3.052-21.422 9.185-12.247 12.247-12.247 30.607 0 42.834l205.056 205.087h-122.419c-18.36 0-30.607 15.278-30.607 30.577 0 18.381 15.299 30.607 30.607 30.607h195.881c3.072 0 9.185 0 12.247-3.072 6.103-3.072 12.227-9.185 15.288-15.299 3.072-3.072 3.072-9.185 3.072-12.247v-195.86c0-18.36-15.319-30.607-30.607-30.607-15.319 0-30.577 15.288-30.577 30.607v122.409l-205.117-205.036zM802.57 893.399l180.593-171.397h-116.306c-33.69 0-64.287 27.556-64.287 64.256 0 0.010 0 107.141 0 107.141zM768.911 51.732c0-15.288-12.247-24.474-24.515-24.474h-658.033c-15.278 0-24.484 12.247-24.484 24.474v654.971c0 15.299 12.247 24.484 24.484 24.484h119.357v-541.727c0-42.834 33.669-76.513 76.544-76.513h486.646v-61.215z" />
<glyph unicode="&#xe94a;" glyph-name="editar" d="M632.996 779.715l204.534-204.534-517.724-517.714-204.411 204.524 517.601 517.724zM992.727 829.041l-91.208 91.208c-35.246 35.246-92.488 35.246-127.857 0l-87.368-87.368 204.534-204.534 101.919 101.919c27.32 27.341 27.32 71.434-0.020 98.775zM8.366-25.487c-3.717-16.753 11.397-31.764 28.16-27.689l227.912 55.265-204.421 204.524-51.651-232.1z" />
<glyph unicode="&#xe94b;" glyph-name="editar-2" d="M511.488 951.194c-278.118 0-503.296-225.178-503.296-503.296s225.075-503.296 503.296-503.296c278.118 0 503.296 225.075 503.296 503.296 0 278.118-225.075 503.296-503.296 503.296zM511.488 11.674c-240.538 0-436.224 195.686-436.224 436.224s195.686 436.224 436.224 436.224 436.122-195.686 436.122-436.224-195.584-436.224-436.122-436.224zM578.765 635.29l116.326-116.326-294.4-294.298-116.224 116.224 294.298 294.4zM783.36 663.347l-51.917 51.917c-20.070 20.070-52.634 20.070-72.704 0l-49.664-49.664 116.326-116.326 57.958 57.958c15.565 15.565 15.565 40.55 0 56.115zM223.642 177.459c-2.15-9.523 6.451-18.022 15.974-15.77l129.638 31.437-116.326 116.326-29.286-131.994z" />
<glyph unicode="&#xe94c;" glyph-name="editar-3" d="M820.634 164.772c6.666 4.321 10.045 12.104 8.919 19.702v359.148l73.093 73.093c0.010 0.010 0.010 0.020 0.020 0.020 0 0 0 0 0 0l45.629 45.629c6.021 6.021 7.506 14.705 4.454 22.047l12.145 12.145c10.721 10.721 16.159 25.262 15.35 40.745-0.604 14.879-7.045 29.112-17.838 39.905-10.824 10.824-25.047 17.029-39.885 17.838h-0.010c-15.688 0.809-30.044-4.639-40.755-15.35l-12.083-12.083c-7.393 3.185-16.2 1.741-22.282-4.342l-185.784-185.784h-462.612c-11.131 0-20.244-9.114-20.244-20.244s9.114-20.244 20.244-20.244h422.124l-53.873-53.873h-368.251c-11.131 0-20.244-9.114-20.244-20.244s9.114-20.244 20.244-20.244h327.752l-53.678-53.678h-274.074c-11.131 0-20.244-9.114-20.244-20.244s9.114-20.244 20.244-20.244h233.585l-53.678-53.678h-179.907c-11.131 0-20.244-9.114-20.244-20.244s9.114-20.244 20.244-20.244h139.407l-16.118-16.118c-3.072-3.072-4.956-6.851-5.663-10.783l-32.297-102.881c-2.437-7.342-0.43-15.135 4.874-20.449 3.83-4.035 8.98-6.031 14.285-6.031 2.13 0 4.168 0.471 6.175 1.075l0.031 0.010 104.827 32.911c0.082 0.020 0.164 0.051 0.256 0.082l0.154 0.051c0.102 0.031 0.195 0.072 0.297 0.102 2.898 0.911 5.622 2.468 7.967 4.813l245.658 245.658c7.997 7.997 7.997 20.695 0 28.692s-20.695 7.997-28.692 0l-231.332-231.342-43.51 43.51 223.396 223.488c1.157 0.932 2.212 1.987 3.144 3.144l224.154 224.246 43.51-43.51-149.647-149.647c-7.997-7.997-7.997-20.695 0-28.692s20.695-7.997 28.692 0l50.493 50.493v-301.189h-234.373c-50.104 0-90.931-40.827-90.931-90.931v-126.259h-340.019c-27.832 0-50.432 22.589-50.432 50.432v34.57c0 11.131-9.114 20.244-20.244 20.244s-20.244-9.114-20.244-20.244v-34.386c0-50.299 40.827-90.931 90.921-90.931h360.264c0 0 0 0 0.010 0 0 0 0 0 0.010 0 3.994 0 7.793 1.116 11.141 3.348l325.458 216.986c0.010 0.010 0.010 0.010 0.020 0.010zM370.883 160.655l-36.485-11.459 11.459 36.485 25.027-25.027zM910.254 751.176c0 0 13.076 12.421 25.498 0 0 0 16.804-13.629 5.54-24.893l-14.1-14.1-27.802 27.802 10.865 11.192zM844.882 703.181l16.773 16.773 43.51-43.51-16.773-16.773-43.51 43.51zM554.68 161.249h187.863l-238.295-158.853v108.421c0.010 27.832 22.6 50.432 50.432 50.432zM683.807 745.769v75.069c0 11.131-9.114 20.244-20.244 20.244h-464.568c-11.131 0-20.244-9.114-20.244-20.244v-75.264c0-11.131 9.114-20.244 20.244-20.244h464.558c11.151 0 20.255 9.144 20.255 20.439zM643.308 765.829h-424.069v34.765h424.069v-34.765zM360.602 671.652c-11.131 0-20.244-9.114-20.244-20.244s9.114-20.244 20.244-20.244h141.158c11.131 0 20.244 9.114 20.244 20.244s-9.114 20.244-20.244 20.244h-141.158zM53.053 158.956c11.131 0 20.244 9.114 20.244 20.244v681.185c0 27.832 22.6 50.432 50.432 50.432h615.086c27.832 0 50.432-22.6 50.432-50.432v-77.169c0-11.131 9.114-20.244 20.244-20.244s20.244 9.114 20.244 20.244v77.169c0 50.104-40.827 90.921-90.921 90.921h-615.086c-50.104 0-90.921-40.827-90.921-90.921v-681.185c-0.010-11.131 9.103-20.244 20.244-20.244zM969.964 558.377h-12.227c-1.362 0-2.693-0.143-3.983-0.399 0.246 1.311 0.369 2.662 0.348 4.055v12.196c0 11.131-9.114 20.244-20.244 20.244s-20.244-9.114-20.244-20.244v-12.227c0-1.382 0.143-2.734 0.41-4.035-1.311 0.266-2.662 0.41-4.045 0.41h-12.237c-11.131 0-20.244-9.114-20.244-20.244s9.114-20.244 20.244-20.244h12.227c1.393 0 2.734 0.143 4.045 0.399-0.266-1.3-0.41-2.652-0.41-4.035v-12.227c0-11.131 9.114-20.244 20.244-20.244 11.284 0 20.46 9.083 20.244 20.275v12.196c0 1.382-0.143 2.734-0.41 4.035 1.311-0.266 2.662-0.41 4.045-0.41h12.227c11.131 0 20.244 9.114 20.244 20.244 0.010 11.141-9.103 20.255-20.234 20.255zM929.812 534.098c0.266 1.311 0.399 2.652 0.399 4.035s-0.143 2.734-0.41 4.035c1.311-0.266 2.662-0.41 4.045-0.41s2.734 0.143 4.045 0.399c-0.266-1.3-0.41-2.652-0.41-4.035s0.143-2.734 0.41-4.035c-1.311 0.266-2.662 0.41-4.045 0.41-1.382 0.010-2.724-0.133-4.035-0.399zM864.123 93.245h-12.227c-1.393 0-2.765-0.143-4.086-0.42 0.287 1.362 0.44 2.785 0.44 4.239v12.227c0 11.131-9.114 20.244-20.255 20.244-11.131 0-20.244-9.114-20.244-20.244v-12.227c0-1.454 0.164-2.867 0.461-4.239-1.311 0.266-2.673 0.41-4.065 0.41h-12.227c-11.131 0-20.244-9.114-20.244-20.244s9.114-20.244 20.244-20.244h12.227c1.362 0 2.703 0.143 3.994 0.399-0.246-1.249-0.379-2.529-0.379-3.84v-12.227c0-11.131 9.114-20.244 20.244-20.244s20.255 9.114 20.255 20.244v12.227c0 1.311-0.133 2.601-0.379 3.84 1.3-0.266 2.642-0.41 4.014-0.41h12.227c11.131 0 20.244 9.114 20.244 20.244 0.010 11.151-9.103 20.265-20.244 20.265zM824.023 69.161c0.246 1.249 0.379 2.529 0.379 3.84 0 1.454-0.164 2.867-0.461 4.229 1.311-0.266 2.673-0.41 4.065-0.41 1.403 0 2.775 0.143 4.096 0.41-0.297-1.372-0.461-2.785-0.461-4.229 0-1.311 0.133-2.601 0.379-3.84-1.3 0.266-2.642 0.41-4.014 0.41-1.362-0.010-2.693-0.154-3.983-0.41z" />
<glyph unicode="&#xe94d;" glyph-name="edit-user" d="M452.004 440.975c141.629 0.010 192.594 141.814 205.926 258.304 16.435 143.503-51.425 251.505-205.926 251.505-154.481 0-222.382-107.991-205.937-251.505 13.353-116.48 64.307-258.314 205.937-258.304zM761.692 381.952c4.557 0 9.083-0.133 13.578-0.389-6.738 9.615-14.541 18.094-23.675 24.914-27.218 20.316-62.464 26.972-93.624 39.219-15.165 5.96-28.754 11.878-41.503 18.616-43.028-47.196-99.154-71.875-164.495-71.885-65.331 0-121.436 24.689-164.465 71.885-12.749-6.738-26.337-12.657-41.503-18.616-31.16-12.247-66.406-18.913-93.624-39.219-47.063-35.133-59.228-114.156-68.782-168.059-7.885-44.503-13.189-89.907-14.735-135.107-1.198-35.011 16.087-39.916 45.373-50.493 36.669-13.23 74.547-23.050 112.66-31.099 73.626-15.544 149.514-27.494 225.075-28.027 36.618 0.266 73.298 3.215 109.773 7.946-27.003 39.127-42.844 86.518-42.844 137.554 0.031 133.857 108.933 242.76 242.79 242.76zM850.493 311.48l87.603-87.603-221.737-221.727-87.542 87.593 221.676 221.737zM1004.564 332.605l-39.066 39.066c-15.094 15.094-39.608 15.094-54.764 0l-37.417-37.417 87.603-87.603 43.653 43.653c11.694 11.704 11.694 30.587-0.010 42.301zM582.973-33.372c-1.587-7.178 4.884-13.609 12.063-11.858l97.608 23.665-87.552 87.593-22.118-99.4z" />
<glyph unicode="&#xe94e;" glyph-name="eliminar" d="M233.933 7.352c1.096-26.286 22.733-47.022 49.029-47.022h458.107c26.296 0 47.933 20.746 49.029 47.022l32.717 690.627h-621.599l32.717-690.627zM615.649 526.438c0 11.008 8.919 19.927 19.937 19.927h31.877c10.998 0 19.937-8.919 19.937-19.927v-394.578c0-11.008-8.919-19.927-19.937-19.927h-31.877c-11.008 0-19.937 8.919-19.937 19.927v394.578zM476.14 526.438c0 11.008 8.919 19.927 19.927 19.927h31.877c10.998 0 19.927-8.919 19.927-19.927v-394.578c0-11.008-8.919-19.927-19.927-19.927h-31.877c-11.008 0-19.927 8.919-19.927 19.927v394.578zM336.64 526.438c0 11.008 8.919 19.927 19.927 19.927h31.887c11.008 0 19.927-8.919 19.927-19.927v-394.578c0-11.008-8.919-19.927-19.927-19.927h-31.887c-11.008 0-19.927 8.919-19.927 19.927v394.578zM844.595 885.197h-211.343v39.946c0 5.673-4.598 10.281-10.281 10.281h-221.921c-5.673 0-10.271-4.598-10.271-10.281v-39.956h-211.354c-17.009 0-30.792-13.783-30.792-30.792v-96.748h726.764v96.737c-0.010 17.019-13.793 30.812-30.802 30.812z" />
<glyph unicode="&#xe94f;" glyph-name="energy" d="M877.128 534.436c-5.079 11.581-16.538 19.067-29.184 19.057l-264.776-0.113 127.375 357.601c5.079 14.264-0.584 30.136-13.548 37.96-12.964 7.834-29.645 5.458-39.905-5.683l-504.863-547.953c-8.571-9.298-10.824-22.804-5.745-34.386s16.538-19.067 29.184-19.057l172.134 0.072c17.603 0.010 31.857 14.275 31.846 31.877-0.010 17.592-14.275 31.857-31.877 31.846l-99.42-0.041 349.716 379.566-90.112-252.979c-3.471-9.759-1.823-20.603 4.147-29.061 5.97-8.468 15.852-13.496 26.214-13.486l236.923 0.102-349.665-379.525 90.132 252.938c3.482 9.759 1.997 20.603-3.983 29.061-5.98 8.468-15.688 13.496-26.051 13.496h-0.317c-14.971-0.010-27.412-10.342-30.792-24.269l-141.476-397.066c-5.079-14.264 0.573-30.136 13.537-37.96 5.12-3.092 10.824-4.598 16.476-4.598 8.663 0 17.224 3.533 23.429 10.271l504.842 547.953c8.581 9.298 10.834 22.794 5.755 34.376z" />
</font>
</defs>
</svg>
